<svg xmlns="http://www.w3.org/2000/svg" xmlns:xlink="http://www.w3.org/1999/xlink" width="1080" zoomAndPan="magnify" viewBox="0 0 810 540.000001" height="720" preserveAspectRatio="xMidYMid meet" version="1.0"><defs><filter x="0%" y="0%" width="100%" height="100%" id="b6cd5bb946"><feColorMatrix values="0 0 0 0 1 0 0 0 0 1 0 0 0 0 1 0 0 0 1 0" color-interpolation-filters="sRGB"/></filter><g/><clipPath id="7e718381c0"><path d="M 0.75 0 L 809.25 0 L 809.25 539 L 0.75 539 Z M 0.75 0 " clip-rule="nonzero"/></clipPath><clipPath id="c78e108f31"><path d="M 0.75 9 L 809.25 9 L 809.25 539 L 0.75 539 Z M 0.75 9 " clip-rule="nonzero"/></clipPath><clipPath id="0cc0beb0d2"><path d="M 800.558594 666.378906 L -420.265625 619.160156 L -392.808594 -90.742188 L 828.015625 -43.523438 Z M 800.558594 666.378906 " clip-rule="nonzero"/></clipPath><clipPath id="0ba149ee6f"><path d="M 800.558594 666.378906 L -420.265625 619.160156 L -392.808594 -90.742188 L 828.015625 -43.523438 Z M 800.558594 666.378906 " clip-rule="nonzero"/></clipPath><mask id="12fa48a72e"><g filter="url(#b6cd5bb946)"><rect x="-81" width="972" fill="#000000" y="-54" height="648.000001" fill-opacity="0.25"/></g></mask><clipPath id="cbb488dd33"><path d="M 0.75 34 L 809.25 34 L 809.25 530 L 0.75 530 Z M 0.75 34 " clip-rule="nonzero"/></clipPath><clipPath id="f74d3f0453"><path d="M 800.558594 657.378906 L -420.265625 610.160156 L -392.808594 -99.742188 L 828.015625 -52.523438 Z M 800.558594 657.378906 " clip-rule="nonzero"/></clipPath><clipPath id="7390d818dd"><path d="M 800.558594 657.378906 L -420.265625 610.160156 L -392.808594 -99.742188 L 828.015625 -52.523438 Z M 800.558594 657.378906 " clip-rule="nonzero"/></clipPath><clipPath id="c2dbbfbd0e"><rect x="0" width="810" y="0" height="530"/></clipPath></defs><g clip-path="url(#7e718381c0)"><path fill="#ffffff" d="M 0.75 0 L 809.25 0 L 809.25 539 L 0.75 539 Z M 0.75 0 " fill-opacity="1" fill-rule="nonzero"/><path fill="#e3ebf2" d="M 0.75 0 L 809.25 0 L 809.25 539 L 0.75 539 Z M 0.75 0 " fill-opacity="1" fill-rule="nonzero"/></g><g clip-path="url(#c78e108f31)"><g clip-path="url(#0cc0beb0d2)"><g clip-path="url(#0ba149ee6f)"><g mask="url(#12fa48a72e)"><g transform="matrix(1, 0, 0, 1, 0.000000000000000111, 9)"><g clip-path="url(#c2dbbfbd0e)"><g clip-path="url(#cbb488dd33)"><g clip-path="url(#f74d3f0453)"><g clip-path="url(#7390d818dd)"><path fill="#145da0" d="M 810.394531 393.574219 C 813.183594 315.105469 816.59375 234.886719 819.429688 158.371094 C 819.429688 158.371094 506.601562 -64.675781 337.699219 89.003906 C 168.800781 242.679688 134.386719 346.300781 -60.609375 244.855469 C -255.601562 143.410156 -407.707031 292.179688 -407.707031 292.179688 L -419.886719 610.175781 C -419.886719 610.175781 -115.355469 375.351562 22.515625 452.484375 C 160.386719 529.617188 359.511719 595.324219 486.332031 459.375 C 613.152344 323.425781 810.394531 393.574219 810.394531 393.574219 Z M 810.394531 393.574219 " fill-opacity="1" fill-rule="nonzero"/></g></g></g></g></g></g></g></g></g><g fill="#000000" fill-opacity="1"><g transform="translate(250.621812, 318.812057)"><g><path d="M 28.921875 -21.375 C 31.335938 -20.863281 33.273438 -19.664062 34.734375 -17.78125 C 36.203125 -15.90625 36.9375 -13.757812 36.9375 -11.34375 C 36.9375 -7.863281 35.71875 -5.101562 33.28125 -3.0625 C 30.851562 -1.019531 27.460938 0 23.109375 0 L 3.6875 0 L 3.6875 -41.6875 L 22.453125 -41.6875 C 26.679688 -41.6875 29.992188 -40.71875 32.390625 -38.78125 C 34.785156 -36.84375 35.984375 -34.210938 35.984375 -30.890625 C 35.984375 -28.429688 35.335938 -26.390625 34.046875 -24.765625 C 32.765625 -23.140625 31.054688 -22.007812 28.921875 -21.375 Z M 13.84375 -24.828125 L 20.484375 -24.828125 C 22.148438 -24.828125 23.425781 -25.191406 24.3125 -25.921875 C 25.207031 -26.648438 25.65625 -27.726562 25.65625 -29.15625 C 25.65625 -30.582031 25.207031 -31.671875 24.3125 -32.421875 C 23.425781 -33.179688 22.148438 -33.5625 20.484375 -33.5625 L 13.84375 -33.5625 Z M 21.328125 -8.203125 C 23.023438 -8.203125 24.335938 -8.585938 25.265625 -9.359375 C 26.203125 -10.128906 26.671875 -11.242188 26.671875 -12.703125 C 26.671875 -14.171875 26.179688 -15.320312 25.203125 -16.15625 C 24.234375 -16.988281 22.898438 -17.40625 21.203125 -17.40625 L 13.84375 -17.40625 L 13.84375 -8.203125 Z M 21.328125 -8.203125 "/></g></g></g><g fill="#000000" fill-opacity="1"><g transform="translate(289.757231, 318.812057)"><g><path d="M 34.921875 -17.109375 C 34.921875 -16.148438 34.863281 -15.160156 34.75 -14.140625 L 11.765625 -14.140625 C 11.921875 -12.078125 12.582031 -10.5 13.75 -9.40625 C 14.914062 -8.320312 16.351562 -7.78125 18.0625 -7.78125 C 20.59375 -7.78125 22.351562 -8.847656 23.34375 -10.984375 L 34.15625 -10.984375 C 33.59375 -8.804688 32.585938 -6.847656 31.140625 -5.109375 C 29.703125 -3.367188 27.894531 -2.003906 25.71875 -1.015625 C 23.539062 -0.0234375 21.101562 0.46875 18.40625 0.46875 C 15.164062 0.46875 12.273438 -0.222656 9.734375 -1.609375 C 7.203125 -2.992188 5.222656 -4.972656 3.796875 -7.546875 C 2.367188 -10.117188 1.65625 -13.125 1.65625 -16.5625 C 1.65625 -20.007812 2.359375 -23.019531 3.765625 -25.59375 C 5.171875 -28.164062 7.140625 -30.144531 9.671875 -31.53125 C 12.210938 -32.914062 15.125 -33.609375 18.40625 -33.609375 C 21.613281 -33.609375 24.460938 -32.9375 26.953125 -31.59375 C 29.453125 -30.25 31.40625 -28.328125 32.8125 -25.828125 C 34.21875 -23.335938 34.921875 -20.429688 34.921875 -17.109375 Z M 24.53125 -19.78125 C 24.53125 -21.519531 23.9375 -22.90625 22.75 -23.9375 C 21.5625 -24.96875 20.078125 -25.484375 18.296875 -25.484375 C 16.585938 -25.484375 15.148438 -24.988281 13.984375 -24 C 12.816406 -23.007812 12.09375 -21.601562 11.8125 -19.78125 Z M 24.53125 -19.78125 "/></g></g></g><g fill="#000000" fill-opacity="1"><g transform="translate(326.339052, 318.812057)"><g><path d="M 16.265625 -33.609375 C 18.609375 -33.609375 20.660156 -33.132812 22.421875 -32.1875 C 24.179688 -31.238281 25.535156 -29.992188 26.484375 -28.453125 L 26.484375 -33.140625 L 36.640625 -33.140625 L 36.640625 -0.0625 C 36.640625 2.988281 36.035156 5.75 34.828125 8.21875 C 33.617188 10.695312 31.773438 12.664062 29.296875 14.125 C 26.828125 15.59375 23.753906 16.328125 20.078125 16.328125 C 15.160156 16.328125 11.175781 15.171875 8.125 12.859375 C 5.082031 10.546875 3.34375 7.40625 2.90625 3.4375 L 12.953125 3.4375 C 13.265625 4.707031 14.015625 5.707031 15.203125 6.4375 C 16.390625 7.175781 17.851562 7.546875 19.59375 7.546875 C 21.695312 7.546875 23.367188 6.941406 24.609375 5.734375 C 25.859375 4.523438 26.484375 2.59375 26.484375 -0.0625 L 26.484375 -4.75 C 25.492188 -3.207031 24.128906 -1.953125 22.390625 -0.984375 C 20.648438 -0.015625 18.609375 0.46875 16.265625 0.46875 C 13.535156 0.46875 11.0625 -0.226562 8.84375 -1.625 C 6.625 -3.03125 4.867188 -5.03125 3.578125 -7.625 C 2.296875 -10.21875 1.65625 -13.21875 1.65625 -16.625 C 1.65625 -20.03125 2.296875 -23.019531 3.578125 -25.59375 C 4.867188 -28.164062 6.625 -30.144531 8.84375 -31.53125 C 11.0625 -32.914062 13.535156 -33.609375 16.265625 -33.609375 Z M 26.484375 -16.5625 C 26.484375 -19.101562 25.78125 -21.101562 24.375 -22.5625 C 22.96875 -24.03125 21.257812 -24.765625 19.25 -24.765625 C 17.226562 -24.765625 15.515625 -24.039062 14.109375 -22.59375 C 12.703125 -21.15625 12 -19.164062 12 -16.625 C 12 -14.09375 12.703125 -12.082031 14.109375 -10.59375 C 15.515625 -9.113281 17.226562 -8.375 19.25 -8.375 C 21.257812 -8.375 22.96875 -9.101562 24.375 -10.5625 C 25.78125 -12.03125 26.484375 -14.03125 26.484375 -16.5625 Z M 26.484375 -16.5625 "/></g></g></g><g fill="#000000" fill-opacity="1"><g transform="translate(366.662194, 318.812057)"><g><path d="M 8.796875 -36.578125 C 7.015625 -36.578125 5.554688 -37.101562 4.421875 -38.15625 C 3.296875 -39.207031 2.734375 -40.503906 2.734375 -42.046875 C 2.734375 -43.628906 3.296875 -44.945312 4.421875 -46 C 5.554688 -47.050781 7.015625 -47.578125 8.796875 -47.578125 C 10.535156 -47.578125 11.96875 -47.050781 13.09375 -46 C 14.21875 -44.945312 14.78125 -43.628906 14.78125 -42.046875 C 14.78125 -40.503906 14.21875 -39.207031 13.09375 -38.15625 C 11.96875 -37.101562 10.535156 -36.578125 8.796875 -36.578125 Z M 13.84375 -33.140625 L 13.84375 0 L 3.6875 0 L 3.6875 -33.140625 Z M 13.84375 -33.140625 "/></g></g></g><g fill="#000000" fill-opacity="1"><g transform="translate(384.181085, 318.812057)"><g><path d="M 23.875 -33.5 C 27.75 -33.5 30.84375 -32.238281 33.15625 -29.71875 C 35.476562 -27.207031 36.640625 -23.753906 36.640625 -19.359375 L 36.640625 0 L 26.546875 0 L 26.546875 -18 C 26.546875 -20.21875 25.972656 -21.9375 24.828125 -23.15625 C 23.679688 -24.382812 22.132812 -25 20.1875 -25 C 18.25 -25 16.707031 -24.382812 15.5625 -23.15625 C 14.414062 -21.9375 13.84375 -20.21875 13.84375 -18 L 13.84375 0 L 3.6875 0 L 3.6875 -33.140625 L 13.84375 -33.140625 L 13.84375 -28.75 C 14.863281 -30.207031 16.242188 -31.363281 17.984375 -32.21875 C 19.734375 -33.070312 21.695312 -33.5 23.875 -33.5 Z M 23.875 -33.5 "/></g></g></g><g fill="#000000" fill-opacity="1"><g transform="translate(424.207298, 318.812057)"><g><path d="M 23.875 -33.5 C 27.75 -33.5 30.84375 -32.238281 33.15625 -29.71875 C 35.476562 -27.207031 36.640625 -23.753906 36.640625 -19.359375 L 36.640625 0 L 26.546875 0 L 26.546875 -18 C 26.546875 -20.21875 25.972656 -21.9375 24.828125 -23.15625 C 23.679688 -24.382812 22.132812 -25 20.1875 -25 C 18.25 -25 16.707031 -24.382812 15.5625 -23.15625 C 14.414062 -21.9375 13.84375 -20.21875 13.84375 -18 L 13.84375 0 L 3.6875 0 L 3.6875 -33.140625 L 13.84375 -33.140625 L 13.84375 -28.75 C 14.863281 -30.207031 16.242188 -31.363281 17.984375 -32.21875 C 19.734375 -33.070312 21.695312 -33.5 23.875 -33.5 Z M 23.875 -33.5 "/></g></g></g><g fill="#000000" fill-opacity="1"><g transform="translate(464.233512, 318.812057)"><g><path d="M 34.921875 -17.109375 C 34.921875 -16.148438 34.863281 -15.160156 34.75 -14.140625 L 11.765625 -14.140625 C 11.921875 -12.078125 12.582031 -10.5 13.75 -9.40625 C 14.914062 -8.320312 16.351562 -7.78125 18.0625 -7.78125 C 20.59375 -7.78125 22.351562 -8.847656 23.34375 -10.984375 L 34.15625 -10.984375 C 33.59375 -8.804688 32.585938 -6.847656 31.140625 -5.109375 C 29.703125 -3.367188 27.894531 -2.003906 25.71875 -1.015625 C 23.539062 -0.0234375 21.101562 0.46875 18.40625 0.46875 C 15.164062 0.46875 12.273438 -0.222656 9.734375 -1.609375 C 7.203125 -2.992188 5.222656 -4.972656 3.796875 -7.546875 C 2.367188 -10.117188 1.65625 -13.125 1.65625 -16.5625 C 1.65625 -20.007812 2.359375 -23.019531 3.765625 -25.59375 C 5.171875 -28.164062 7.140625 -30.144531 9.671875 -31.53125 C 12.210938 -32.914062 15.125 -33.609375 18.40625 -33.609375 C 21.613281 -33.609375 24.460938 -32.9375 26.953125 -31.59375 C 29.453125 -30.25 31.40625 -28.328125 32.8125 -25.828125 C 34.21875 -23.335938 34.921875 -20.429688 34.921875 -17.109375 Z M 24.53125 -19.78125 C 24.53125 -21.519531 23.9375 -22.90625 22.75 -23.9375 C 21.5625 -24.96875 20.078125 -25.484375 18.296875 -25.484375 C 16.585938 -25.484375 15.148438 -24.988281 13.984375 -24 C 12.816406 -23.007812 12.09375 -21.601562 11.8125 -19.78125 Z M 24.53125 -19.78125 "/></g></g></g><g fill="#000000" fill-opacity="1"><g transform="translate(500.815333, 318.812057)"><g><path d="M 13.84375 -27.609375 C 15.03125 -29.429688 16.515625 -30.867188 18.296875 -31.921875 C 20.078125 -32.972656 22.054688 -33.5 24.234375 -33.5 L 24.234375 -22.75 L 21.4375 -22.75 C 18.90625 -22.75 17.003906 -22.203125 15.734375 -21.109375 C 14.472656 -20.023438 13.84375 -18.113281 13.84375 -15.375 L 13.84375 0 L 3.6875 0 L 3.6875 -33.140625 L 13.84375 -33.140625 Z M 13.84375 -27.609375 "/></g></g></g><g fill="#000000" fill-opacity="1"><g transform="translate(526.23258, 318.812057)"><g><path d="M 17.15625 0.46875 C 14.269531 0.46875 11.695312 -0.0234375 9.4375 -1.015625 C 7.1875 -2.003906 5.40625 -3.359375 4.09375 -5.078125 C 2.789062 -6.796875 2.0625 -8.726562 1.90625 -10.875 L 11.9375 -10.875 C 12.050781 -9.71875 12.582031 -8.785156 13.53125 -8.078125 C 14.488281 -7.367188 15.660156 -7.015625 17.046875 -7.015625 C 18.316406 -7.015625 19.296875 -7.257812 19.984375 -7.75 C 20.679688 -8.25 21.03125 -8.894531 21.03125 -9.6875 C 21.03125 -10.632812 20.535156 -11.332031 19.546875 -11.78125 C 18.554688 -12.238281 16.953125 -12.742188 14.734375 -13.296875 C 12.359375 -13.859375 10.378906 -14.441406 8.796875 -15.046875 C 7.210938 -15.660156 5.84375 -16.628906 4.6875 -17.953125 C 3.539062 -19.285156 2.96875 -21.082031 2.96875 -23.34375 C 2.96875 -25.238281 3.492188 -26.96875 4.546875 -28.53125 C 5.597656 -30.101562 7.140625 -31.34375 9.171875 -32.25 C 11.210938 -33.15625 13.640625 -33.609375 16.453125 -33.609375 C 20.609375 -33.609375 23.882812 -32.578125 26.28125 -30.515625 C 28.675781 -28.460938 30.050781 -25.734375 30.40625 -22.328125 L 21.03125 -22.328125 C 20.863281 -23.472656 20.351562 -24.382812 19.5 -25.0625 C 18.65625 -25.738281 17.539062 -26.078125 16.15625 -26.078125 C 14.96875 -26.078125 14.054688 -25.847656 13.421875 -25.390625 C 12.785156 -24.929688 12.46875 -24.304688 12.46875 -23.515625 C 12.46875 -22.566406 12.972656 -21.851562 13.984375 -21.375 C 14.992188 -20.90625 16.566406 -20.429688 18.703125 -19.953125 C 21.160156 -19.316406 23.160156 -18.691406 24.703125 -18.078125 C 26.242188 -17.460938 27.597656 -16.472656 28.765625 -15.109375 C 29.941406 -13.742188 30.550781 -11.914062 30.59375 -9.625 C 30.59375 -7.6875 30.046875 -5.953125 28.953125 -4.421875 C 27.859375 -2.898438 26.289062 -1.703125 24.25 -0.828125 C 22.21875 0.0351562 19.851562 0.46875 17.15625 0.46875 Z M 17.15625 0.46875 "/></g></g></g></svg>