<svg xmlns="http://www.w3.org/2000/svg" xmlns:xlink="http://www.w3.org/1999/xlink" width="1080" zoomAndPan="magnify" viewBox="0 0 810 540.000001" height="720" preserveAspectRatio="xMidYMid meet" version="1.0"><defs><filter x="0%" y="0%" width="100%" height="100%" id="acf694e92a"><feColorMatrix values="0 0 0 0 1 0 0 0 0 1 0 0 0 0 1 0 0 0 1 0" color-interpolation-filters="sRGB"/></filter><g/><clipPath id="adab7ad63e"><path d="M 0.75 0 L 809.25 0 L 809.25 539 L 0.75 539 Z M 0.75 0 " clip-rule="nonzero"/></clipPath><clipPath id="4e93b0ee03"><path d="M 0.75 34 L 809.25 34 L 809.25 508 L 0.75 508 Z M 0.75 34 " clip-rule="nonzero"/></clipPath><clipPath id="d2f5ff6354"><path d="M -78.765625 -18.285156 L 825.308594 -39.613281 L 837.699219 485.769531 L -66.375 507.09375 Z M -78.765625 -18.285156 " clip-rule="nonzero"/></clipPath><clipPath id="071262cb21"><path d="M -66.367188 507.398438 L 837.707031 486.074219 L 825.316406 -39.308594 L -78.757812 -17.984375 Z M -66.367188 507.398438 " clip-rule="nonzero"/></clipPath><mask id="28f2f4f04f"><g filter="url(#acf694e92a)"><rect x="-81" width="972" fill="#000000" y="-54" height="648.000001" fill-opacity="0.25"/></g></mask><clipPath id="11a8f0ffb4"><path d="M 0.75 16 L 809.25 16 L 809.25 453 L 0.75 453 Z M 0.75 16 " clip-rule="nonzero"/></clipPath><clipPath id="55765b13ea"><path d="M -78.765625 -52.285156 L 825.308594 -73.613281 L 837.699219 451.769531 L -66.375 473.09375 Z M -78.765625 -52.285156 " clip-rule="nonzero"/></clipPath><clipPath id="180adf07f7"><path d="M -66.367188 473.398438 L 837.707031 452.074219 L 825.316406 -73.308594 L -78.757812 -51.984375 Z M -66.367188 473.398438 " clip-rule="nonzero"/></clipPath><clipPath id="ed53ad0fb0"><rect x="0" width="810" y="0" height="474"/></clipPath></defs><g clip-path="url(#adab7ad63e)"><path fill="#ffffff" d="M 0.75 0 L 809.25 0 L 809.25 539 L 0.75 539 Z M 0.75 0 " fill-opacity="1" fill-rule="nonzero"/><path fill="#1f628e" d="M 0.75 0 L 809.25 0 L 809.25 539 L 0.75 539 Z M 0.75 0 " fill-opacity="1" fill-rule="nonzero"/></g><g clip-path="url(#4e93b0ee03)"><g clip-path="url(#d2f5ff6354)"><g clip-path="url(#071262cb21)"><g mask="url(#28f2f4f04f)"><g transform="matrix(1, 0, 0, 1, 0.000000000000000111, 34)"><g clip-path="url(#ed53ad0fb0)"><g clip-path="url(#11a8f0ffb4)"><g clip-path="url(#55765b13ea)"><g clip-path="url(#180adf07f7)"><path fill="#c0f0f7" d="M -70.703125 277.976562 C -71.894531 219.847656 -73.523438 160.421875 -74.769531 103.738281 C -74.769531 103.738281 159.328125 -57.902344 282.660156 57.757812 C 405.992188 173.421875 430.3125 250.523438 575.8125 177.59375 C 721.3125 104.664062 832.265625 216.503906 832.265625 216.503906 L 837.730469 452.074219 C 837.730469 452.074219 614.890625 274.816406 511.953125 330.386719 C 409.015625 385.953125 260.859375 432.375 168.484375 330.308594 C 76.109375 228.242188 -70.703125 277.976562 -70.703125 277.976562 Z M -70.703125 277.976562 " fill-opacity="1" fill-rule="nonzero"/></g></g></g></g></g></g></g></g></g><g fill="#000000" fill-opacity="1"><g transform="translate(29.412328, 290.087809)"><g><path d="M 61.046875 -41.6875 L 50.1875 0 L 37.890625 0 L 31.234375 -27.4375 L 24.34375 0 L 12.0625 0 L 1.484375 -41.6875 L 12.359375 -41.6875 L 18.359375 -11.34375 L 25.78125 -41.6875 L 36.9375 -41.6875 L 44.0625 -11.34375 L 50.125 -41.6875 Z M 61.046875 -41.6875 "/></g></g></g><g fill="#000000" fill-opacity="1"><g transform="translate(91.886476, 290.087809)"><g><path d="M 24.046875 -33.5 C 27.847656 -33.5 30.894531 -32.238281 33.1875 -29.71875 C 35.488281 -27.207031 36.640625 -23.753906 36.640625 -19.359375 L 36.640625 0 L 26.546875 0 L 26.546875 -18 C 26.546875 -20.21875 25.972656 -21.9375 24.828125 -23.15625 C 23.679688 -24.382812 22.132812 -25 20.1875 -25 C 18.25 -25 16.707031 -24.382812 15.5625 -23.15625 C 14.414062 -21.9375 13.84375 -20.21875 13.84375 -18 L 13.84375 0 L 3.6875 0 L 3.6875 -43.953125 L 13.84375 -43.953125 L 13.84375 -28.6875 C 14.863281 -30.15625 16.265625 -31.320312 18.046875 -32.1875 C 19.835938 -33.0625 21.835938 -33.5 24.046875 -33.5 Z M 24.046875 -33.5 "/></g></g></g><g fill="#000000" fill-opacity="1"><g transform="translate(131.91269, 290.087809)"><g><path d="M 1.65625 -16.625 C 1.65625 -20.03125 2.296875 -23.019531 3.578125 -25.59375 C 4.867188 -28.164062 6.625 -30.144531 8.84375 -31.53125 C 11.0625 -32.914062 13.535156 -33.609375 16.265625 -33.609375 C 18.609375 -33.609375 20.660156 -33.132812 22.421875 -32.1875 C 24.179688 -31.238281 25.535156 -29.992188 26.484375 -28.453125 L 26.484375 -33.140625 L 36.640625 -33.140625 L 36.640625 0 L 26.484375 0 L 26.484375 -4.6875 C 25.492188 -3.144531 24.117188 -1.898438 22.359375 -0.953125 C 20.597656 -0.00390625 18.550781 0.46875 16.21875 0.46875 C 13.519531 0.46875 11.0625 -0.226562 8.84375 -1.625 C 6.625 -3.03125 4.867188 -5.03125 3.578125 -7.625 C 2.296875 -10.21875 1.65625 -13.21875 1.65625 -16.625 Z M 26.484375 -16.5625 C 26.484375 -19.101562 25.78125 -21.101562 24.375 -22.5625 C 22.96875 -24.03125 21.257812 -24.765625 19.25 -24.765625 C 17.226562 -24.765625 15.515625 -24.039062 14.109375 -22.59375 C 12.703125 -21.15625 12 -19.164062 12 -16.625 C 12 -14.09375 12.703125 -12.082031 14.109375 -10.59375 C 15.515625 -9.113281 17.226562 -8.375 19.25 -8.375 C 21.257812 -8.375 22.96875 -9.101562 24.375 -10.5625 C 25.78125 -12.03125 26.484375 -14.03125 26.484375 -16.5625 Z M 26.484375 -16.5625 "/></g></g></g><g fill="#000000" fill-opacity="1"><g transform="translate(172.235831, 290.087809)"><g><path d="M 22.15625 -8.609375 L 22.15625 0 L 16.984375 0 C 13.304688 0 10.4375 -0.898438 8.375 -2.703125 C 6.3125 -4.503906 5.28125 -7.441406 5.28125 -11.515625 L 5.28125 -24.703125 L 1.25 -24.703125 L 1.25 -33.140625 L 5.28125 -33.140625 L 5.28125 -41.21875 L 15.4375 -41.21875 L 15.4375 -33.140625 L 22.09375 -33.140625 L 22.09375 -24.703125 L 15.4375 -24.703125 L 15.4375 -11.40625 C 15.4375 -10.414062 15.671875 -9.703125 16.140625 -9.265625 C 16.617188 -8.828125 17.414062 -8.609375 18.53125 -8.609375 Z M 22.15625 -8.609375 "/></g></g></g><g fill="#000000" fill-opacity="1"><g transform="translate(196.34658, 290.087809)"><g/></g></g><g fill="#000000" fill-opacity="1"><g transform="translate(208.936428, 290.087809)"><g><path d="M 8.796875 -36.578125 C 7.015625 -36.578125 5.554688 -37.101562 4.421875 -38.15625 C 3.296875 -39.207031 2.734375 -40.503906 2.734375 -42.046875 C 2.734375 -43.628906 3.296875 -44.945312 4.421875 -46 C 5.554688 -47.050781 7.015625 -47.578125 8.796875 -47.578125 C 10.535156 -47.578125 11.96875 -47.050781 13.09375 -46 C 14.21875 -44.945312 14.78125 -43.628906 14.78125 -42.046875 C 14.78125 -40.503906 14.21875 -39.207031 13.09375 -38.15625 C 11.96875 -37.101562 10.535156 -36.578125 8.796875 -36.578125 Z M 13.84375 -33.140625 L 13.84375 0 L 3.6875 0 L 3.6875 -33.140625 Z M 13.84375 -33.140625 "/></g></g></g><g fill="#000000" fill-opacity="1"><g transform="translate(226.455308, 290.087809)"><g><path d="M 17.15625 0.46875 C 14.269531 0.46875 11.695312 -0.0234375 9.4375 -1.015625 C 7.1875 -2.003906 5.40625 -3.359375 4.09375 -5.078125 C 2.789062 -6.796875 2.0625 -8.726562 1.90625 -10.875 L 11.9375 -10.875 C 12.050781 -9.71875 12.582031 -8.785156 13.53125 -8.078125 C 14.488281 -7.367188 15.660156 -7.015625 17.046875 -7.015625 C 18.316406 -7.015625 19.296875 -7.257812 19.984375 -7.75 C 20.679688 -8.25 21.03125 -8.894531 21.03125 -9.6875 C 21.03125 -10.632812 20.535156 -11.332031 19.546875 -11.78125 C 18.554688 -12.238281 16.953125 -12.742188 14.734375 -13.296875 C 12.359375 -13.859375 10.378906 -14.441406 8.796875 -15.046875 C 7.210938 -15.660156 5.84375 -16.628906 4.6875 -17.953125 C 3.539062 -19.285156 2.96875 -21.082031 2.96875 -23.34375 C 2.96875 -25.238281 3.492188 -26.96875 4.546875 -28.53125 C 5.597656 -30.101562 7.140625 -31.34375 9.171875 -32.25 C 11.210938 -33.15625 13.640625 -33.609375 16.453125 -33.609375 C 20.609375 -33.609375 23.882812 -32.578125 26.28125 -30.515625 C 28.675781 -28.460938 30.050781 -25.734375 30.40625 -22.328125 L 21.03125 -22.328125 C 20.863281 -23.472656 20.351562 -24.382812 19.5 -25.0625 C 18.65625 -25.738281 17.539062 -26.078125 16.15625 -26.078125 C 14.96875 -26.078125 14.054688 -25.847656 13.421875 -25.390625 C 12.785156 -24.929688 12.46875 -24.304688 12.46875 -23.515625 C 12.46875 -22.566406 12.972656 -21.851562 13.984375 -21.375 C 14.992188 -20.90625 16.566406 -20.429688 18.703125 -19.953125 C 21.160156 -19.316406 23.160156 -18.691406 24.703125 -18.078125 C 26.242188 -17.460938 27.597656 -16.472656 28.765625 -15.109375 C 29.941406 -13.742188 30.550781 -11.914062 30.59375 -9.625 C 30.59375 -7.6875 30.046875 -5.953125 28.953125 -4.421875 C 27.859375 -2.898438 26.289062 -1.703125 24.25 -0.828125 C 22.21875 0.0351562 19.851562 0.46875 17.15625 0.46875 Z M 17.15625 0.46875 "/></g></g></g><g fill="#000000" fill-opacity="1"><g transform="translate(259.592748, 290.087809)"><g/></g></g><g fill="#000000" fill-opacity="1"><g transform="translate(272.182608, 290.087809)"><g><path d="M 35.453125 -28.265625 C 35.453125 -25.847656 34.894531 -23.640625 33.78125 -21.640625 C 32.675781 -19.648438 30.972656 -18.039062 28.671875 -16.8125 C 26.378906 -15.582031 23.535156 -14.96875 20.140625 -14.96875 L 13.84375 -14.96875 L 13.84375 0 L 3.6875 0 L 3.6875 -41.6875 L 20.140625 -41.6875 C 23.460938 -41.6875 26.269531 -41.113281 28.5625 -39.96875 C 30.863281 -38.820312 32.585938 -37.238281 33.734375 -35.21875 C 34.878906 -33.195312 35.453125 -30.878906 35.453125 -28.265625 Z M 19.359375 -23.046875 C 21.296875 -23.046875 22.738281 -23.5 23.6875 -24.40625 C 24.644531 -25.320312 25.125 -26.609375 25.125 -28.265625 C 25.125 -29.929688 24.644531 -31.21875 23.6875 -32.125 C 22.738281 -33.039062 21.296875 -33.5 19.359375 -33.5 L 13.84375 -33.5 L 13.84375 -23.046875 Z M 19.359375 -23.046875 "/></g></g></g><g fill="#000000" fill-opacity="1"><g transform="translate(309.239531, 290.087809)"><g><path d="M 37.53125 -33.140625 L 16.75 15.734375 L 5.8125 15.734375 L 13.421875 -1.125 L -0.0625 -33.140625 L 11.28125 -33.140625 L 18.953125 -12.40625 L 26.546875 -33.140625 Z M 37.53125 -33.140625 "/></g></g></g><g fill="#000000" fill-opacity="1"><g transform="translate(346.771512, 290.087809)"><g><path d="M 22.15625 -8.609375 L 22.15625 0 L 16.984375 0 C 13.304688 0 10.4375 -0.898438 8.375 -2.703125 C 6.3125 -4.503906 5.28125 -7.441406 5.28125 -11.515625 L 5.28125 -24.703125 L 1.25 -24.703125 L 1.25 -33.140625 L 5.28125 -33.140625 L 5.28125 -41.21875 L 15.4375 -41.21875 L 15.4375 -33.140625 L 22.09375 -33.140625 L 22.09375 -24.703125 L 15.4375 -24.703125 L 15.4375 -11.40625 C 15.4375 -10.414062 15.671875 -9.703125 16.140625 -9.265625 C 16.617188 -8.828125 17.414062 -8.609375 18.53125 -8.609375 Z M 22.15625 -8.609375 "/></g></g></g><g fill="#000000" fill-opacity="1"><g transform="translate(370.882272, 290.087809)"><g><path d="M 24.046875 -33.5 C 27.847656 -33.5 30.894531 -32.238281 33.1875 -29.71875 C 35.488281 -27.207031 36.640625 -23.753906 36.640625 -19.359375 L 36.640625 0 L 26.546875 0 L 26.546875 -18 C 26.546875 -20.21875 25.972656 -21.9375 24.828125 -23.15625 C 23.679688 -24.382812 22.132812 -25 20.1875 -25 C 18.25 -25 16.707031 -24.382812 15.5625 -23.15625 C 14.414062 -21.9375 13.84375 -20.21875 13.84375 -18 L 13.84375 0 L 3.6875 0 L 3.6875 -43.953125 L 13.84375 -43.953125 L 13.84375 -28.6875 C 14.863281 -30.15625 16.265625 -31.320312 18.046875 -32.1875 C 19.835938 -33.0625 21.835938 -33.5 24.046875 -33.5 Z M 24.046875 -33.5 "/></g></g></g><g fill="#000000" fill-opacity="1"><g transform="translate(410.908474, 290.087809)"><g><path d="M 18.765625 0.46875 C 15.515625 0.46875 12.59375 -0.222656 10 -1.609375 C 7.414062 -2.992188 5.378906 -4.972656 3.890625 -7.546875 C 2.398438 -10.117188 1.65625 -13.125 1.65625 -16.5625 C 1.65625 -19.96875 2.40625 -22.96875 3.90625 -25.5625 C 5.414062 -28.15625 7.476562 -30.144531 10.09375 -31.53125 C 12.707031 -32.914062 15.640625 -33.609375 18.890625 -33.609375 C 22.128906 -33.609375 25.054688 -32.914062 27.671875 -31.53125 C 30.285156 -30.144531 32.34375 -28.15625 33.84375 -25.5625 C 35.351562 -22.96875 36.109375 -19.96875 36.109375 -16.5625 C 36.109375 -13.164062 35.34375 -10.171875 33.8125 -7.578125 C 32.289062 -4.984375 30.210938 -2.992188 27.578125 -1.609375 C 24.953125 -0.222656 22.015625 0.46875 18.765625 0.46875 Z M 18.765625 -8.3125 C 20.703125 -8.3125 22.351562 -9.023438 23.71875 -10.453125 C 25.09375 -11.878906 25.78125 -13.914062 25.78125 -16.5625 C 25.78125 -19.21875 25.113281 -21.257812 23.78125 -22.6875 C 22.457031 -24.113281 20.828125 -24.828125 18.890625 -24.828125 C 16.910156 -24.828125 15.265625 -24.125 13.953125 -22.71875 C 12.648438 -21.3125 12 -19.257812 12 -16.5625 C 12 -13.914062 12.640625 -11.878906 13.921875 -10.453125 C 15.210938 -9.023438 16.828125 -8.3125 18.765625 -8.3125 Z M 18.765625 -8.3125 "/></g></g></g><g fill="#000000" fill-opacity="1"><g transform="translate(448.737406, 290.087809)"><g><path d="M 23.875 -33.5 C 27.75 -33.5 30.84375 -32.238281 33.15625 -29.71875 C 35.476562 -27.207031 36.640625 -23.753906 36.640625 -19.359375 L 36.640625 0 L 26.546875 0 L 26.546875 -18 C 26.546875 -20.21875 25.972656 -21.9375 24.828125 -23.15625 C 23.679688 -24.382812 22.132812 -25 20.1875 -25 C 18.25 -25 16.707031 -24.382812 15.5625 -23.15625 C 14.414062 -21.9375 13.84375 -20.21875 13.84375 -18 L 13.84375 0 L 3.6875 0 L 3.6875 -33.140625 L 13.84375 -33.140625 L 13.84375 -28.75 C 14.863281 -30.207031 16.242188 -31.363281 17.984375 -32.21875 C 19.734375 -33.070312 21.695312 -33.5 23.875 -33.5 Z M 23.875 -33.5 "/></g></g></g><g fill="#000000" fill-opacity="1"><g transform="translate(488.763608, 290.087809)"><g/></g></g><g fill="#000000" fill-opacity="1"><g transform="translate(501.353468, 290.087809)"><g><path d="M 36.40625 -33.140625 L 36.40625 0 L 26.25 0 L 26.25 -4.515625 C 25.21875 -3.046875 23.820312 -1.863281 22.0625 -0.96875 C 20.300781 -0.0820312 18.351562 0.359375 16.21875 0.359375 C 13.675781 0.359375 11.4375 -0.203125 9.5 -1.328125 C 7.5625 -2.460938 6.054688 -4.097656 4.984375 -6.234375 C 3.921875 -8.367188 3.390625 -10.882812 3.390625 -13.78125 L 3.390625 -33.140625 L 13.484375 -33.140625 L 13.484375 -15.140625 C 13.484375 -12.921875 14.054688 -11.195312 15.203125 -9.96875 C 16.347656 -8.75 17.894531 -8.140625 19.84375 -8.140625 C 21.820312 -8.140625 23.382812 -8.75 24.53125 -9.96875 C 25.675781 -11.195312 26.25 -12.921875 26.25 -15.140625 L 26.25 -33.140625 Z M 36.40625 -33.140625 "/></g></g></g><g fill="#000000" fill-opacity="1"><g transform="translate(541.37967, 290.087809)"><g><path d="M 17.15625 0.46875 C 14.269531 0.46875 11.695312 -0.0234375 9.4375 -1.015625 C 7.1875 -2.003906 5.40625 -3.359375 4.09375 -5.078125 C 2.789062 -6.796875 2.0625 -8.726562 1.90625 -10.875 L 11.9375 -10.875 C 12.050781 -9.71875 12.582031 -8.785156 13.53125 -8.078125 C 14.488281 -7.367188 15.660156 -7.015625 17.046875 -7.015625 C 18.316406 -7.015625 19.296875 -7.257812 19.984375 -7.75 C 20.679688 -8.25 21.03125 -8.894531 21.03125 -9.6875 C 21.03125 -10.632812 20.535156 -11.332031 19.546875 -11.78125 C 18.554688 -12.238281 16.953125 -12.742188 14.734375 -13.296875 C 12.359375 -13.859375 10.378906 -14.441406 8.796875 -15.046875 C 7.210938 -15.660156 5.84375 -16.628906 4.6875 -17.953125 C 3.539062 -19.285156 2.96875 -21.082031 2.96875 -23.34375 C 2.96875 -25.238281 3.492188 -26.96875 4.546875 -28.53125 C 5.597656 -30.101562 7.140625 -31.34375 9.171875 -32.25 C 11.210938 -33.15625 13.640625 -33.609375 16.453125 -33.609375 C 20.609375 -33.609375 23.882812 -32.578125 26.28125 -30.515625 C 28.675781 -28.460938 30.050781 -25.734375 30.40625 -22.328125 L 21.03125 -22.328125 C 20.863281 -23.472656 20.351562 -24.382812 19.5 -25.0625 C 18.65625 -25.738281 17.539062 -26.078125 16.15625 -26.078125 C 14.96875 -26.078125 14.054688 -25.847656 13.421875 -25.390625 C 12.785156 -24.929688 12.46875 -24.304688 12.46875 -23.515625 C 12.46875 -22.566406 12.972656 -21.851562 13.984375 -21.375 C 14.992188 -20.90625 16.566406 -20.429688 18.703125 -19.953125 C 21.160156 -19.316406 23.160156 -18.691406 24.703125 -18.078125 C 26.242188 -17.460938 27.597656 -16.472656 28.765625 -15.109375 C 29.941406 -13.742188 30.550781 -11.914062 30.59375 -9.625 C 30.59375 -7.6875 30.046875 -5.953125 28.953125 -4.421875 C 27.859375 -2.898438 26.289062 -1.703125 24.25 -0.828125 C 22.21875 0.0351562 19.851562 0.46875 17.15625 0.46875 Z M 17.15625 0.46875 "/></g></g></g><g fill="#000000" fill-opacity="1"><g transform="translate(574.51711, 290.087809)"><g><path d="M 34.921875 -17.109375 C 34.921875 -16.148438 34.863281 -15.160156 34.75 -14.140625 L 11.765625 -14.140625 C 11.921875 -12.078125 12.582031 -10.5 13.75 -9.40625 C 14.914062 -8.320312 16.351562 -7.78125 18.0625 -7.78125 C 20.59375 -7.78125 22.351562 -8.847656 23.34375 -10.984375 L 34.15625 -10.984375 C 33.59375 -8.804688 32.585938 -6.847656 31.140625 -5.109375 C 29.703125 -3.367188 27.894531 -2.003906 25.71875 -1.015625 C 23.539062 -0.0234375 21.101562 0.46875 18.40625 0.46875 C 15.164062 0.46875 12.273438 -0.222656 9.734375 -1.609375 C 7.203125 -2.992188 5.222656 -4.972656 3.796875 -7.546875 C 2.367188 -10.117188 1.65625 -13.125 1.65625 -16.5625 C 1.65625 -20.007812 2.359375 -23.019531 3.765625 -25.59375 C 5.171875 -28.164062 7.140625 -30.144531 9.671875 -31.53125 C 12.210938 -32.914062 15.125 -33.609375 18.40625 -33.609375 C 21.613281 -33.609375 24.460938 -32.9375 26.953125 -31.59375 C 29.453125 -30.25 31.40625 -28.328125 32.8125 -25.828125 C 34.21875 -23.335938 34.921875 -20.429688 34.921875 -17.109375 Z M 24.53125 -19.78125 C 24.53125 -21.519531 23.9375 -22.90625 22.75 -23.9375 C 21.5625 -24.96875 20.078125 -25.484375 18.296875 -25.484375 C 16.585938 -25.484375 15.148438 -24.988281 13.984375 -24 C 12.816406 -23.007812 12.09375 -21.601562 11.8125 -19.78125 Z M 24.53125 -19.78125 "/></g></g></g><g fill="#000000" fill-opacity="1"><g transform="translate(611.098931, 290.087809)"><g><path d="M 1.65625 -16.625 C 1.65625 -20.03125 2.296875 -23.019531 3.578125 -25.59375 C 4.867188 -28.164062 6.625 -30.144531 8.84375 -31.53125 C 11.0625 -32.914062 13.535156 -33.609375 16.265625 -33.609375 C 18.453125 -33.609375 20.441406 -33.15625 22.234375 -32.25 C 24.035156 -31.34375 25.453125 -30.113281 26.484375 -28.5625 L 26.484375 -43.953125 L 36.640625 -43.953125 L 36.640625 0 L 26.484375 0 L 26.484375 -4.75 C 25.535156 -3.164062 24.179688 -1.898438 22.421875 -0.953125 C 20.660156 -0.00390625 18.609375 0.46875 16.265625 0.46875 C 13.535156 0.46875 11.0625 -0.226562 8.84375 -1.625 C 6.625 -3.03125 4.867188 -5.03125 3.578125 -7.625 C 2.296875 -10.21875 1.65625 -13.21875 1.65625 -16.625 Z M 26.484375 -16.5625 C 26.484375 -19.101562 25.78125 -21.101562 24.375 -22.5625 C 22.96875 -24.03125 21.257812 -24.765625 19.25 -24.765625 C 17.226562 -24.765625 15.515625 -24.039062 14.109375 -22.59375 C 12.703125 -21.15625 12 -19.164062 12 -16.625 C 12 -14.09375 12.703125 -12.082031 14.109375 -10.59375 C 15.515625 -9.113281 17.226562 -8.375 19.25 -8.375 C 21.257812 -8.375 22.96875 -9.101562 24.375 -10.5625 C 25.78125 -12.03125 26.484375 -14.03125 26.484375 -16.5625 Z M 26.484375 -16.5625 "/></g></g></g><g fill="#000000" fill-opacity="1"><g transform="translate(651.422085, 290.087809)"><g/></g></g><g fill="#000000" fill-opacity="1"><g transform="translate(664.011944, 290.087809)"><g><path d="M 20.3125 -24.703125 L 14.84375 -24.703125 L 14.84375 0 L 4.6875 0 L 4.6875 -24.703125 L 1.015625 -24.703125 L 1.015625 -33.140625 L 4.6875 -33.140625 L 4.6875 -34.09375 C 4.6875 -38.164062 5.851562 -41.257812 8.1875 -43.375 C 10.53125 -45.5 13.957031 -46.5625 18.46875 -46.5625 C 19.21875 -46.5625 19.773438 -46.539062 20.140625 -46.5 L 20.140625 -37.890625 C 18.191406 -38.003906 16.820312 -37.722656 16.03125 -37.046875 C 15.238281 -36.378906 14.84375 -35.175781 14.84375 -33.4375 L 14.84375 -33.140625 L 20.3125 -33.140625 Z M 20.3125 -24.703125 "/></g></g></g><g fill="#000000" fill-opacity="1"><g transform="translate(685.390931, 290.087809)"><g><path d="M 18.765625 0.46875 C 15.515625 0.46875 12.59375 -0.222656 10 -1.609375 C 7.414062 -2.992188 5.378906 -4.972656 3.890625 -7.546875 C 2.398438 -10.117188 1.65625 -13.125 1.65625 -16.5625 C 1.65625 -19.96875 2.40625 -22.96875 3.90625 -25.5625 C 5.414062 -28.15625 7.476562 -30.144531 10.09375 -31.53125 C 12.707031 -32.914062 15.640625 -33.609375 18.890625 -33.609375 C 22.128906 -33.609375 25.054688 -32.914062 27.671875 -31.53125 C 30.285156 -30.144531 32.34375 -28.15625 33.84375 -25.5625 C 35.351562 -22.96875 36.109375 -19.96875 36.109375 -16.5625 C 36.109375 -13.164062 35.34375 -10.171875 33.8125 -7.578125 C 32.289062 -4.984375 30.210938 -2.992188 27.578125 -1.609375 C 24.953125 -0.222656 22.015625 0.46875 18.765625 0.46875 Z M 18.765625 -8.3125 C 20.703125 -8.3125 22.351562 -9.023438 23.71875 -10.453125 C 25.09375 -11.878906 25.78125 -13.914062 25.78125 -16.5625 C 25.78125 -19.21875 25.113281 -21.257812 23.78125 -22.6875 C 22.457031 -24.113281 20.828125 -24.828125 18.890625 -24.828125 C 16.910156 -24.828125 15.265625 -24.125 13.953125 -22.71875 C 12.648438 -21.3125 12 -19.257812 12 -16.5625 C 12 -13.914062 12.640625 -11.878906 13.921875 -10.453125 C 15.210938 -9.023438 16.828125 -8.3125 18.765625 -8.3125 Z M 18.765625 -8.3125 "/></g></g></g><g fill="#000000" fill-opacity="1"><g transform="translate(723.219863, 290.087809)"><g><path d="M 13.84375 -27.609375 C 15.03125 -29.429688 16.515625 -30.867188 18.296875 -31.921875 C 20.078125 -32.972656 22.054688 -33.5 24.234375 -33.5 L 24.234375 -22.75 L 21.4375 -22.75 C 18.90625 -22.75 17.003906 -22.203125 15.734375 -21.109375 C 14.472656 -20.023438 13.84375 -18.113281 13.84375 -15.375 L 13.84375 0 L 3.6875 0 L 3.6875 -33.140625 L 13.84375 -33.140625 Z M 13.84375 -27.609375 "/></g></g></g><g fill="#000000" fill-opacity="1"><g transform="translate(748.637087, 290.087809)"><g><path d="M 15.859375 -44.015625 C 20.097656 -44.015625 23.492188 -42.90625 26.046875 -40.6875 C 28.597656 -38.46875 29.875 -35.335938 29.875 -31.296875 C 29.875 -27.578125 28.65625 -24.675781 26.21875 -22.59375 C 23.78125 -20.519531 20.5625 -19.460938 16.5625 -19.421875 L 16.265625 -14.96875 L 7.359375 -14.96875 L 7.0625 -26.015625 L 10.625 -26.015625 C 13.675781 -26.015625 16.003906 -26.390625 17.609375 -27.140625 C 19.210938 -27.890625 20.015625 -29.253906 20.015625 -31.234375 C 20.015625 -32.617188 19.632812 -33.707031 18.875 -34.5 C 18.125 -35.289062 17.078125 -35.6875 15.734375 -35.6875 C 14.304688 -35.6875 13.195312 -35.28125 12.40625 -34.46875 C 11.613281 -33.664062 11.21875 -32.570312 11.21875 -31.1875 L 1.65625 -31.1875 C 1.582031 -33.59375 2.085938 -35.765625 3.171875 -37.703125 C 4.265625 -39.648438 5.890625 -41.1875 8.046875 -42.3125 C 10.203125 -43.445312 12.804688 -44.015625 15.859375 -44.015625 Z M 11.9375 0.46875 C 10.15625 0.46875 8.695312 -0.0507812 7.5625 -1.09375 C 6.4375 -2.144531 5.875 -3.441406 5.875 -4.984375 C 5.875 -6.566406 6.4375 -7.894531 7.5625 -8.96875 C 8.695312 -10.039062 10.15625 -10.578125 11.9375 -10.578125 C 13.675781 -10.578125 15.109375 -10.039062 16.234375 -8.96875 C 17.367188 -7.894531 17.9375 -6.566406 17.9375 -4.984375 C 17.9375 -3.441406 17.367188 -2.144531 16.234375 -1.09375 C 15.109375 -0.0507812 13.675781 0.46875 11.9375 0.46875 Z M 11.9375 0.46875 "/></g></g></g></svg>