<svg xmlns="http://www.w3.org/2000/svg" xmlns:xlink="http://www.w3.org/1999/xlink" width="1080" zoomAndPan="magnify" viewBox="0 0 810 540.000001" height="720" preserveAspectRatio="xMidYMid meet" version="1.0"><defs><filter x="0%" y="0%" width="100%" height="100%" id="cddc9f96e7"><feColorMatrix values="0 0 0 0 1 0 0 0 0 1 0 0 0 0 1 0 0 0 1 0" color-interpolation-filters="sRGB"/></filter><g/><clipPath id="c6a6bdb295"><path d="M 0.75 0 L 809.25 0 L 809.25 539 L 0.75 539 Z M 0.75 0 " clip-rule="nonzero"/></clipPath><clipPath id="9df585d84b"><path d="M 0.75 0 L 809.25 0 L 809.25 539 L 0.75 539 Z M 0.75 0 " clip-rule="nonzero"/></clipPath><clipPath id="afda7a6c60"><path d="M -172.445312 334.480469 L 777.359375 -433.96875 L 1224.207031 118.339844 L 274.402344 886.785156 Z M -172.445312 334.480469 " clip-rule="nonzero"/></clipPath><clipPath id="c1cb4a6bde"><path d="M -172.445312 334.480469 L 777.359375 -433.96875 L 1224.207031 118.339844 L 274.402344 886.785156 Z M -172.445312 334.480469 " clip-rule="nonzero"/></clipPath><mask id="eaf4343c05"><g filter="url(#cddc9f96e7)"><rect x="-81" width="972" fill="#000000" y="-54" height="648.000001" fill-opacity="0.25"/></g></mask><clipPath id="c95c10d014"><path d="M 0.75 0 L 809.25 0 L 809.25 539 L 0.75 539 Z M 0.75 0 " clip-rule="nonzero"/></clipPath><clipPath id="b956a6ac0c"><path d="M -172.445312 334.480469 L 777.359375 -433.96875 L 1224.207031 118.339844 L 274.402344 886.785156 Z M -172.445312 334.480469 " clip-rule="nonzero"/></clipPath><clipPath id="a9fe57e3ff"><path d="M -172.445312 334.480469 L 777.359375 -433.96875 L 1224.207031 118.339844 L 274.402344 886.785156 Z M -172.445312 334.480469 " clip-rule="nonzero"/></clipPath><clipPath id="b3f03ff1ec"><rect x="0" width="810" y="0" height="539"/></clipPath></defs><g clip-path="url(#c6a6bdb295)"><path fill="#ffffff" d="M 0.75 0 L 809.25 0 L 809.25 539 L 0.75 539 Z M 0.75 0 " fill-opacity="1" fill-rule="nonzero"/><path fill="#2e266d" d="M 0.75 0 L 809.25 0 L 809.25 539 L 0.75 539 Z M 0.75 0 " fill-opacity="1" fill-rule="nonzero"/></g><g clip-path="url(#9df585d84b)"><g clip-path="url(#afda7a6c60)"><g clip-path="url(#c1cb4a6bde)"><g mask="url(#eaf4343c05)"><g transform="matrix(1, 0, 0, 1, 0.000000000000000111, 0.000000000000017795)"><g clip-path="url(#b3f03ff1ec)"><g clip-path="url(#c95c10d014)"><g clip-path="url(#b956a6ac0c)"><g clip-path="url(#a9fe57e3ff)"><path fill="#88a9c3" d="M -6.117188 539.480469 C 43.460938 600.367188 93.722656 662.980469 141.976562 722.425781 C 141.976562 722.425781 524.277344 684.261719 550.179688 457.382812 C 576.078125 230.507812 533.730469 129.863281 747.277344 77.789062 C 960.824219 25.714844 977.316406 -186.410156 977.316406 -186.410156 L 777.0625 -433.726562 C 777.0625 -433.726562 702.539062 -56.464844 547.988281 -23.714844 C 393.441406 9.035156 200.324219 90.726562 194.417969 276.550781 C 188.511719 462.375 -6.117188 539.480469 -6.117188 539.480469 Z M -6.117188 539.480469 " fill-opacity="1" fill-rule="nonzero"/></g></g></g></g></g></g></g></g></g><g fill="#000000" fill-opacity="1"><g transform="translate(232.566626, 290.087809)"><g><path d="M 29.640625 -7.359375 L 14.078125 -7.359375 L 11.578125 0 L 0.953125 0 L 16.03125 -41.6875 L 27.796875 -41.6875 L 42.875 0 L 32.125 0 Z M 27.015625 -15.203125 L 21.859375 -30.46875 L 16.75 -15.203125 Z M 27.015625 -15.203125 "/></g></g></g><g fill="#000000" fill-opacity="1"><g transform="translate(276.334161, 290.087809)"><g><path d="M 1.65625 -16.625 C 1.65625 -20.03125 2.296875 -23.019531 3.578125 -25.59375 C 4.867188 -28.164062 6.625 -30.144531 8.84375 -31.53125 C 11.0625 -32.914062 13.535156 -33.609375 16.265625 -33.609375 C 18.453125 -33.609375 20.441406 -33.15625 22.234375 -32.25 C 24.035156 -31.34375 25.453125 -30.113281 26.484375 -28.5625 L 26.484375 -43.953125 L 36.640625 -43.953125 L 36.640625 0 L 26.484375 0 L 26.484375 -4.75 C 25.535156 -3.164062 24.179688 -1.898438 22.421875 -0.953125 C 20.660156 -0.00390625 18.609375 0.46875 16.265625 0.46875 C 13.535156 0.46875 11.0625 -0.226562 8.84375 -1.625 C 6.625 -3.03125 4.867188 -5.03125 3.578125 -7.625 C 2.296875 -10.21875 1.65625 -13.21875 1.65625 -16.625 Z M 26.484375 -16.5625 C 26.484375 -19.101562 25.78125 -21.101562 24.375 -22.5625 C 22.96875 -24.03125 21.257812 -24.765625 19.25 -24.765625 C 17.226562 -24.765625 15.515625 -24.039062 14.109375 -22.59375 C 12.703125 -21.15625 12 -19.164062 12 -16.625 C 12 -14.09375 12.703125 -12.082031 14.109375 -10.59375 C 15.515625 -9.113281 17.226562 -8.375 19.25 -8.375 C 21.257812 -8.375 22.96875 -9.101562 24.375 -10.5625 C 25.78125 -12.03125 26.484375 -14.03125 26.484375 -16.5625 Z M 26.484375 -16.5625 "/></g></g></g><g fill="#000000" fill-opacity="1"><g transform="translate(316.657302, 290.087809)"><g><path d="M 18.59375 -9.5 L 25.78125 -33.140625 L 36.578125 -33.140625 L 24.828125 0 L 12.296875 0 L 0.53125 -33.140625 L 11.40625 -33.140625 Z M 18.59375 -9.5 "/></g></g></g><g fill="#000000" fill-opacity="1"><g transform="translate(353.832979, 290.087809)"><g><path d="M 1.65625 -16.625 C 1.65625 -20.03125 2.296875 -23.019531 3.578125 -25.59375 C 4.867188 -28.164062 6.625 -30.144531 8.84375 -31.53125 C 11.0625 -32.914062 13.535156 -33.609375 16.265625 -33.609375 C 18.609375 -33.609375 20.660156 -33.132812 22.421875 -32.1875 C 24.179688 -31.238281 25.535156 -29.992188 26.484375 -28.453125 L 26.484375 -33.140625 L 36.640625 -33.140625 L 36.640625 0 L 26.484375 0 L 26.484375 -4.6875 C 25.492188 -3.144531 24.117188 -1.898438 22.359375 -0.953125 C 20.597656 -0.00390625 18.550781 0.46875 16.21875 0.46875 C 13.519531 0.46875 11.0625 -0.226562 8.84375 -1.625 C 6.625 -3.03125 4.867188 -5.03125 3.578125 -7.625 C 2.296875 -10.21875 1.65625 -13.21875 1.65625 -16.625 Z M 26.484375 -16.5625 C 26.484375 -19.101562 25.78125 -21.101562 24.375 -22.5625 C 22.96875 -24.03125 21.257812 -24.765625 19.25 -24.765625 C 17.226562 -24.765625 15.515625 -24.039062 14.109375 -22.59375 C 12.703125 -21.15625 12 -19.164062 12 -16.625 C 12 -14.09375 12.703125 -12.082031 14.109375 -10.59375 C 15.515625 -9.113281 17.226562 -8.375 19.25 -8.375 C 21.257812 -8.375 22.96875 -9.101562 24.375 -10.5625 C 25.78125 -12.03125 26.484375 -14.03125 26.484375 -16.5625 Z M 26.484375 -16.5625 "/></g></g></g><g fill="#000000" fill-opacity="1"><g transform="translate(394.15612, 290.087809)"><g><path d="M 23.875 -33.5 C 27.75 -33.5 30.84375 -32.238281 33.15625 -29.71875 C 35.476562 -27.207031 36.640625 -23.753906 36.640625 -19.359375 L 36.640625 0 L 26.546875 0 L 26.546875 -18 C 26.546875 -20.21875 25.972656 -21.9375 24.828125 -23.15625 C 23.679688 -24.382812 22.132812 -25 20.1875 -25 C 18.25 -25 16.707031 -24.382812 15.5625 -23.15625 C 14.414062 -21.9375 13.84375 -20.21875 13.84375 -18 L 13.84375 0 L 3.6875 0 L 3.6875 -33.140625 L 13.84375 -33.140625 L 13.84375 -28.75 C 14.863281 -30.207031 16.242188 -31.363281 17.984375 -32.21875 C 19.734375 -33.070312 21.695312 -33.5 23.875 -33.5 Z M 23.875 -33.5 "/></g></g></g><g fill="#000000" fill-opacity="1"><g transform="translate(434.182346, 290.087809)"><g><path d="M 1.65625 -16.5625 C 1.65625 -20.007812 2.359375 -23.019531 3.765625 -25.59375 C 5.171875 -28.164062 7.128906 -30.144531 9.640625 -31.53125 C 12.160156 -32.914062 15.046875 -33.609375 18.296875 -33.609375 C 22.453125 -33.609375 25.925781 -32.519531 28.71875 -30.34375 C 31.507812 -28.164062 33.335938 -25.097656 34.203125 -21.140625 L 23.40625 -21.140625 C 22.488281 -23.671875 20.722656 -24.9375 18.109375 -24.9375 C 16.253906 -24.9375 14.769531 -24.210938 13.65625 -22.765625 C 12.550781 -21.328125 12 -19.257812 12 -16.5625 C 12 -13.875 12.550781 -11.804688 13.65625 -10.359375 C 14.769531 -8.921875 16.253906 -8.203125 18.109375 -8.203125 C 20.722656 -8.203125 22.488281 -9.46875 23.40625 -12 L 34.203125 -12 C 33.335938 -8.113281 31.5 -5.0625 28.6875 -2.84375 C 25.875 -0.632812 22.410156 0.46875 18.296875 0.46875 C 15.046875 0.46875 12.160156 -0.222656 9.640625 -1.609375 C 7.128906 -2.992188 5.171875 -4.972656 3.765625 -7.546875 C 2.359375 -10.117188 1.65625 -13.125 1.65625 -16.5625 Z M 1.65625 -16.5625 "/></g></g></g><g fill="#000000" fill-opacity="1"><g transform="translate(470.110912, 290.087809)"><g><path d="M 34.921875 -17.109375 C 34.921875 -16.148438 34.863281 -15.160156 34.75 -14.140625 L 11.765625 -14.140625 C 11.921875 -12.078125 12.582031 -10.5 13.75 -9.40625 C 14.914062 -8.320312 16.351562 -7.78125 18.0625 -7.78125 C 20.59375 -7.78125 22.351562 -8.847656 23.34375 -10.984375 L 34.15625 -10.984375 C 33.59375 -8.804688 32.585938 -6.847656 31.140625 -5.109375 C 29.703125 -3.367188 27.894531 -2.003906 25.71875 -1.015625 C 23.539062 -0.0234375 21.101562 0.46875 18.40625 0.46875 C 15.164062 0.46875 12.273438 -0.222656 9.734375 -1.609375 C 7.203125 -2.992188 5.222656 -4.972656 3.796875 -7.546875 C 2.367188 -10.117188 1.65625 -13.125 1.65625 -16.5625 C 1.65625 -20.007812 2.359375 -23.019531 3.765625 -25.59375 C 5.171875 -28.164062 7.140625 -30.144531 9.671875 -31.53125 C 12.210938 -32.914062 15.125 -33.609375 18.40625 -33.609375 C 21.613281 -33.609375 24.460938 -32.9375 26.953125 -31.59375 C 29.453125 -30.25 31.40625 -28.328125 32.8125 -25.828125 C 34.21875 -23.335938 34.921875 -20.429688 34.921875 -17.109375 Z M 24.53125 -19.78125 C 24.53125 -21.519531 23.9375 -22.90625 22.75 -23.9375 C 21.5625 -24.96875 20.078125 -25.484375 18.296875 -25.484375 C 16.585938 -25.484375 15.148438 -24.988281 13.984375 -24 C 12.816406 -23.007812 12.09375 -21.601562 11.8125 -19.78125 Z M 24.53125 -19.78125 "/></g></g></g><g fill="#000000" fill-opacity="1"><g transform="translate(506.692733, 290.087809)"><g><path d="M 1.65625 -16.625 C 1.65625 -20.03125 2.296875 -23.019531 3.578125 -25.59375 C 4.867188 -28.164062 6.625 -30.144531 8.84375 -31.53125 C 11.0625 -32.914062 13.535156 -33.609375 16.265625 -33.609375 C 18.453125 -33.609375 20.441406 -33.15625 22.234375 -32.25 C 24.035156 -31.34375 25.453125 -30.113281 26.484375 -28.5625 L 26.484375 -43.953125 L 36.640625 -43.953125 L 36.640625 0 L 26.484375 0 L 26.484375 -4.75 C 25.535156 -3.164062 24.179688 -1.898438 22.421875 -0.953125 C 20.660156 -0.00390625 18.609375 0.46875 16.265625 0.46875 C 13.535156 0.46875 11.0625 -0.226562 8.84375 -1.625 C 6.625 -3.03125 4.867188 -5.03125 3.578125 -7.625 C 2.296875 -10.21875 1.65625 -13.21875 1.65625 -16.625 Z M 26.484375 -16.5625 C 26.484375 -19.101562 25.78125 -21.101562 24.375 -22.5625 C 22.96875 -24.03125 21.257812 -24.765625 19.25 -24.765625 C 17.226562 -24.765625 15.515625 -24.039062 14.109375 -22.59375 C 12.703125 -21.15625 12 -19.164062 12 -16.625 C 12 -14.09375 12.703125 -12.082031 14.109375 -10.59375 C 15.515625 -9.113281 17.226562 -8.375 19.25 -8.375 C 21.257812 -8.375 22.96875 -9.101562 24.375 -10.5625 C 25.78125 -12.03125 26.484375 -14.03125 26.484375 -16.5625 Z M 26.484375 -16.5625 "/></g></g></g></svg>