<svg xmlns="http://www.w3.org/2000/svg" xmlns:xlink="http://www.w3.org/1999/xlink" width="1080" zoomAndPan="magnify" viewBox="0 0 810 540.000001" height="720" preserveAspectRatio="xMidYMid meet" version="1.0"><defs><filter x="0%" y="0%" width="100%" height="100%" id="b4466dc9fa"><feColorMatrix values="0 0 0 0 1 0 0 0 0 1 0 0 0 0 1 0 0 0 1 0" color-interpolation-filters="sRGB"/></filter><g/><clipPath id="23b329e0f1"><path d="M 0.75 0 L 809.25 0 L 809.25 539 L 0.75 539 Z M 0.75 0 " clip-rule="nonzero"/></clipPath><clipPath id="e98b7b0036"><path d="M 0.75 0 L 809.25 0 L 809.25 539 L 0.75 539 Z M 0.75 0 " clip-rule="nonzero"/></clipPath><clipPath id="129014eaf0"><path d="M 1202.796875 166.898438 L 117.222656 727.414062 L -208.710938 96.15625 L 876.859375 -464.355469 Z M 1202.796875 166.898438 " clip-rule="nonzero"/></clipPath><clipPath id="2a73642c96"><path d="M 1202.796875 166.898438 L 117.222656 727.414062 L -208.710938 96.15625 L 876.859375 -464.355469 Z M 1202.796875 166.898438 " clip-rule="nonzero"/></clipPath><mask id="fd199b95a3"><g filter="url(#b4466dc9fa)"><rect x="-81" width="972" fill="#000000" y="-54" height="648.000001" fill-opacity="0.25"/></g></mask><clipPath id="25f03aa8fb"><path d="M 0.75 0 L 809.25 0 L 809.25 539 L 0.75 539 Z M 0.75 0 " clip-rule="nonzero"/></clipPath><clipPath id="dbf0d19070"><path d="M 1202.796875 166.898438 L 117.222656 727.414062 L -208.710938 96.15625 L 876.859375 -464.355469 Z M 1202.796875 166.898438 " clip-rule="nonzero"/></clipPath><clipPath id="916ad7b676"><path d="M 1202.796875 166.898438 L 117.222656 727.414062 L -208.710938 96.15625 L 876.859375 -464.355469 Z M 1202.796875 166.898438 " clip-rule="nonzero"/></clipPath><clipPath id="c50da07bb5"><rect x="0" width="810" y="0" height="539"/></clipPath></defs><g clip-path="url(#23b329e0f1)"><path fill="#ffffff" d="M 0.75 0 L 809.25 0 L 809.25 539 L 0.75 539 Z M 0.75 0 " fill-opacity="1" fill-rule="nonzero"/><path fill="#56aeff" d="M 0.75 0 L 809.25 0 L 809.25 539 L 0.75 539 Z M 0.75 0 " fill-opacity="1" fill-rule="nonzero"/></g><g clip-path="url(#e98b7b0036)"><g clip-path="url(#129014eaf0)"><g clip-path="url(#2a73642c96)"><g mask="url(#fd199b95a3)"><g transform="matrix(1, 0, 0, 1, 0.000000000000000111, 0.000000000000017795)"><g clip-path="url(#c50da07bb5)"><g clip-path="url(#25f03aa8fb)"><g clip-path="url(#dbf0d19070)"><g clip-path="url(#916ad7b676)"><path fill="#c0f0f7" d="M 1081.355469 -67.5 C 1045.117188 -137.15625 1008.550781 -208.636719 973.316406 -276.613281 C 973.316406 -276.613281 591.191406 -316.539062 519.953125 -99.585938 C 448.710938 117.367188 469.832031 224.492188 250.164062 232.308594 C 30.5 240.128906 -28.542969 444.535156 -28.542969 444.535156 L 117.5625 727.238281 C 117.5625 727.238281 266.832031 372.839844 424.8125 372.015625 C 582.792969 371.191406 788.4375 330.242188 831.796875 149.449219 C 875.15625 -31.34375 1081.355469 -67.5 1081.355469 -67.5 Z M 1081.355469 -67.5 " fill-opacity="1" fill-rule="nonzero"/></g></g></g></g></g></g></g></g></g><g fill="#000000" fill-opacity="1"><g transform="translate(203.997218, 318.812057)"><g><path d="M 13.84375 -41.6875 L 13.84375 0 L 3.6875 0 L 3.6875 -41.6875 Z M 13.84375 -41.6875 "/></g></g></g><g fill="#000000" fill-opacity="1"><g transform="translate(221.516109, 318.812057)"><g><path d="M 23.875 -33.5 C 27.75 -33.5 30.84375 -32.238281 33.15625 -29.71875 C 35.476562 -27.207031 36.640625 -23.753906 36.640625 -19.359375 L 36.640625 0 L 26.546875 0 L 26.546875 -18 C 26.546875 -20.21875 25.972656 -21.9375 24.828125 -23.15625 C 23.679688 -24.382812 22.132812 -25 20.1875 -25 C 18.25 -25 16.707031 -24.382812 15.5625 -23.15625 C 14.414062 -21.9375 13.84375 -20.21875 13.84375 -18 L 13.84375 0 L 3.6875 0 L 3.6875 -33.140625 L 13.84375 -33.140625 L 13.84375 -28.75 C 14.863281 -30.207031 16.242188 -31.363281 17.984375 -32.21875 C 19.734375 -33.070312 21.695312 -33.5 23.875 -33.5 Z M 23.875 -33.5 "/></g></g></g><g fill="#000000" fill-opacity="1"><g transform="translate(261.542322, 318.812057)"><g><path d="M 22.15625 -8.609375 L 22.15625 0 L 16.984375 0 C 13.304688 0 10.4375 -0.898438 8.375 -2.703125 C 6.3125 -4.503906 5.28125 -7.441406 5.28125 -11.515625 L 5.28125 -24.703125 L 1.25 -24.703125 L 1.25 -33.140625 L 5.28125 -33.140625 L 5.28125 -41.21875 L 15.4375 -41.21875 L 15.4375 -33.140625 L 22.09375 -33.140625 L 22.09375 -24.703125 L 15.4375 -24.703125 L 15.4375 -11.40625 C 15.4375 -10.414062 15.671875 -9.703125 16.140625 -9.265625 C 16.617188 -8.828125 17.414062 -8.609375 18.53125 -8.609375 Z M 22.15625 -8.609375 "/></g></g></g><g fill="#000000" fill-opacity="1"><g transform="translate(285.653071, 318.812057)"><g><path d="M 34.921875 -17.109375 C 34.921875 -16.148438 34.863281 -15.160156 34.75 -14.140625 L 11.765625 -14.140625 C 11.921875 -12.078125 12.582031 -10.5 13.75 -9.40625 C 14.914062 -8.320312 16.351562 -7.78125 18.0625 -7.78125 C 20.59375 -7.78125 22.351562 -8.847656 23.34375 -10.984375 L 34.15625 -10.984375 C 33.59375 -8.804688 32.585938 -6.847656 31.140625 -5.109375 C 29.703125 -3.367188 27.894531 -2.003906 25.71875 -1.015625 C 23.539062 -0.0234375 21.101562 0.46875 18.40625 0.46875 C 15.164062 0.46875 12.273438 -0.222656 9.734375 -1.609375 C 7.203125 -2.992188 5.222656 -4.972656 3.796875 -7.546875 C 2.367188 -10.117188 1.65625 -13.125 1.65625 -16.5625 C 1.65625 -20.007812 2.359375 -23.019531 3.765625 -25.59375 C 5.171875 -28.164062 7.140625 -30.144531 9.671875 -31.53125 C 12.210938 -32.914062 15.125 -33.609375 18.40625 -33.609375 C 21.613281 -33.609375 24.460938 -32.9375 26.953125 -31.59375 C 29.453125 -30.25 31.40625 -28.328125 32.8125 -25.828125 C 34.21875 -23.335938 34.921875 -20.429688 34.921875 -17.109375 Z M 24.53125 -19.78125 C 24.53125 -21.519531 23.9375 -22.90625 22.75 -23.9375 C 21.5625 -24.96875 20.078125 -25.484375 18.296875 -25.484375 C 16.585938 -25.484375 15.148438 -24.988281 13.984375 -24 C 12.816406 -23.007812 12.09375 -21.601562 11.8125 -19.78125 Z M 24.53125 -19.78125 "/></g></g></g><g fill="#000000" fill-opacity="1"><g transform="translate(322.234892, 318.812057)"><g><path d="M 13.84375 -27.609375 C 15.03125 -29.429688 16.515625 -30.867188 18.296875 -31.921875 C 20.078125 -32.972656 22.054688 -33.5 24.234375 -33.5 L 24.234375 -22.75 L 21.4375 -22.75 C 18.90625 -22.75 17.003906 -22.203125 15.734375 -21.109375 C 14.472656 -20.023438 13.84375 -18.113281 13.84375 -15.375 L 13.84375 0 L 3.6875 0 L 3.6875 -33.140625 L 13.84375 -33.140625 Z M 13.84375 -27.609375 "/></g></g></g><g fill="#000000" fill-opacity="1"><g transform="translate(347.652128, 318.812057)"><g><path d="M 45.96875 -33.5 C 50.082031 -33.5 53.359375 -32.25 55.796875 -29.75 C 58.234375 -27.257812 59.453125 -23.796875 59.453125 -19.359375 L 59.453125 0 L 49.359375 0 L 49.359375 -18 C 49.359375 -20.132812 48.789062 -21.785156 47.65625 -22.953125 C 46.53125 -24.117188 44.976562 -24.703125 43 -24.703125 C 41.019531 -24.703125 39.460938 -24.117188 38.328125 -22.953125 C 37.203125 -21.785156 36.640625 -20.132812 36.640625 -18 L 36.640625 0 L 26.546875 0 L 26.546875 -18 C 26.546875 -20.132812 25.976562 -21.785156 24.84375 -22.953125 C 23.71875 -24.117188 22.164062 -24.703125 20.1875 -24.703125 C 18.207031 -24.703125 16.65625 -24.117188 15.53125 -22.953125 C 14.40625 -21.785156 13.84375 -20.132812 13.84375 -18 L 13.84375 0 L 3.6875 0 L 3.6875 -33.140625 L 13.84375 -33.140625 L 13.84375 -28.984375 C 14.863281 -30.367188 16.207031 -31.46875 17.875 -32.28125 C 19.539062 -33.09375 21.421875 -33.5 23.515625 -33.5 C 26.015625 -33.5 28.242188 -32.960938 30.203125 -31.890625 C 32.160156 -30.828125 33.691406 -29.300781 34.796875 -27.3125 C 35.953125 -29.132812 37.519531 -30.617188 39.5 -31.765625 C 41.476562 -32.921875 43.632812 -33.5 45.96875 -33.5 Z M 45.96875 -33.5 "/></g></g></g><g fill="#000000" fill-opacity="1"><g transform="translate(410.54198, 318.812057)"><g><path d="M 34.921875 -17.109375 C 34.921875 -16.148438 34.863281 -15.160156 34.75 -14.140625 L 11.765625 -14.140625 C 11.921875 -12.078125 12.582031 -10.5 13.75 -9.40625 C 14.914062 -8.320312 16.351562 -7.78125 18.0625 -7.78125 C 20.59375 -7.78125 22.351562 -8.847656 23.34375 -10.984375 L 34.15625 -10.984375 C 33.59375 -8.804688 32.585938 -6.847656 31.140625 -5.109375 C 29.703125 -3.367188 27.894531 -2.003906 25.71875 -1.015625 C 23.539062 -0.0234375 21.101562 0.46875 18.40625 0.46875 C 15.164062 0.46875 12.273438 -0.222656 9.734375 -1.609375 C 7.203125 -2.992188 5.222656 -4.972656 3.796875 -7.546875 C 2.367188 -10.117188 1.65625 -13.125 1.65625 -16.5625 C 1.65625 -20.007812 2.359375 -23.019531 3.765625 -25.59375 C 5.171875 -28.164062 7.140625 -30.144531 9.671875 -31.53125 C 12.210938 -32.914062 15.125 -33.609375 18.40625 -33.609375 C 21.613281 -33.609375 24.460938 -32.9375 26.953125 -31.59375 C 29.453125 -30.25 31.40625 -28.328125 32.8125 -25.828125 C 34.21875 -23.335938 34.921875 -20.429688 34.921875 -17.109375 Z M 24.53125 -19.78125 C 24.53125 -21.519531 23.9375 -22.90625 22.75 -23.9375 C 21.5625 -24.96875 20.078125 -25.484375 18.296875 -25.484375 C 16.585938 -25.484375 15.148438 -24.988281 13.984375 -24 C 12.816406 -23.007812 12.09375 -21.601562 11.8125 -19.78125 Z M 24.53125 -19.78125 "/></g></g></g><g fill="#000000" fill-opacity="1"><g transform="translate(447.123802, 318.812057)"><g><path d="M 1.65625 -16.625 C 1.65625 -20.03125 2.296875 -23.019531 3.578125 -25.59375 C 4.867188 -28.164062 6.625 -30.144531 8.84375 -31.53125 C 11.0625 -32.914062 13.535156 -33.609375 16.265625 -33.609375 C 18.453125 -33.609375 20.441406 -33.15625 22.234375 -32.25 C 24.035156 -31.34375 25.453125 -30.113281 26.484375 -28.5625 L 26.484375 -43.953125 L 36.640625 -43.953125 L 36.640625 0 L 26.484375 0 L 26.484375 -4.75 C 25.535156 -3.164062 24.179688 -1.898438 22.421875 -0.953125 C 20.660156 -0.00390625 18.609375 0.46875 16.265625 0.46875 C 13.535156 0.46875 11.0625 -0.226562 8.84375 -1.625 C 6.625 -3.03125 4.867188 -5.03125 3.578125 -7.625 C 2.296875 -10.21875 1.65625 -13.21875 1.65625 -16.625 Z M 26.484375 -16.5625 C 26.484375 -19.101562 25.78125 -21.101562 24.375 -22.5625 C 22.96875 -24.03125 21.257812 -24.765625 19.25 -24.765625 C 17.226562 -24.765625 15.515625 -24.039062 14.109375 -22.59375 C 12.703125 -21.15625 12 -19.164062 12 -16.625 C 12 -14.09375 12.703125 -12.082031 14.109375 -10.59375 C 15.515625 -9.113281 17.226562 -8.375 19.25 -8.375 C 21.257812 -8.375 22.96875 -9.101562 24.375 -10.5625 C 25.78125 -12.03125 26.484375 -14.03125 26.484375 -16.5625 Z M 26.484375 -16.5625 "/></g></g></g><g fill="#000000" fill-opacity="1"><g transform="translate(487.446955, 318.812057)"><g><path d="M 8.796875 -36.578125 C 7.015625 -36.578125 5.554688 -37.101562 4.421875 -38.15625 C 3.296875 -39.207031 2.734375 -40.503906 2.734375 -42.046875 C 2.734375 -43.628906 3.296875 -44.945312 4.421875 -46 C 5.554688 -47.050781 7.015625 -47.578125 8.796875 -47.578125 C 10.535156 -47.578125 11.96875 -47.050781 13.09375 -46 C 14.21875 -44.945312 14.78125 -43.628906 14.78125 -42.046875 C 14.78125 -40.503906 14.21875 -39.207031 13.09375 -38.15625 C 11.96875 -37.101562 10.535156 -36.578125 8.796875 -36.578125 Z M 13.84375 -33.140625 L 13.84375 0 L 3.6875 0 L 3.6875 -33.140625 Z M 13.84375 -33.140625 "/></g></g></g><g fill="#000000" fill-opacity="1"><g transform="translate(504.965857, 318.812057)"><g><path d="M 1.65625 -16.625 C 1.65625 -20.03125 2.296875 -23.019531 3.578125 -25.59375 C 4.867188 -28.164062 6.625 -30.144531 8.84375 -31.53125 C 11.0625 -32.914062 13.535156 -33.609375 16.265625 -33.609375 C 18.609375 -33.609375 20.660156 -33.132812 22.421875 -32.1875 C 24.179688 -31.238281 25.535156 -29.992188 26.484375 -28.453125 L 26.484375 -33.140625 L 36.640625 -33.140625 L 36.640625 0 L 26.484375 0 L 26.484375 -4.6875 C 25.492188 -3.144531 24.117188 -1.898438 22.359375 -0.953125 C 20.597656 -0.00390625 18.550781 0.46875 16.21875 0.46875 C 13.519531 0.46875 11.0625 -0.226562 8.84375 -1.625 C 6.625 -3.03125 4.867188 -5.03125 3.578125 -7.625 C 2.296875 -10.21875 1.65625 -13.21875 1.65625 -16.625 Z M 26.484375 -16.5625 C 26.484375 -19.101562 25.78125 -21.101562 24.375 -22.5625 C 22.96875 -24.03125 21.257812 -24.765625 19.25 -24.765625 C 17.226562 -24.765625 15.515625 -24.039062 14.109375 -22.59375 C 12.703125 -21.15625 12 -19.164062 12 -16.625 C 12 -14.09375 12.703125 -12.082031 14.109375 -10.59375 C 15.515625 -9.113281 17.226562 -8.375 19.25 -8.375 C 21.257812 -8.375 22.96875 -9.101562 24.375 -10.5625 C 25.78125 -12.03125 26.484375 -14.03125 26.484375 -16.5625 Z M 26.484375 -16.5625 "/></g></g></g><g fill="#000000" fill-opacity="1"><g transform="translate(545.289011, 318.812057)"><g><path d="M 22.15625 -8.609375 L 22.15625 0 L 16.984375 0 C 13.304688 0 10.4375 -0.898438 8.375 -2.703125 C 6.3125 -4.503906 5.28125 -7.441406 5.28125 -11.515625 L 5.28125 -24.703125 L 1.25 -24.703125 L 1.25 -33.140625 L 5.28125 -33.140625 L 5.28125 -41.21875 L 15.4375 -41.21875 L 15.4375 -33.140625 L 22.09375 -33.140625 L 22.09375 -24.703125 L 15.4375 -24.703125 L 15.4375 -11.40625 C 15.4375 -10.414062 15.671875 -9.703125 16.140625 -9.265625 C 16.617188 -8.828125 17.414062 -8.609375 18.53125 -8.609375 Z M 22.15625 -8.609375 "/></g></g></g><g fill="#000000" fill-opacity="1"><g transform="translate(569.399771, 318.812057)"><g><path d="M 34.921875 -17.109375 C 34.921875 -16.148438 34.863281 -15.160156 34.75 -14.140625 L 11.765625 -14.140625 C 11.921875 -12.078125 12.582031 -10.5 13.75 -9.40625 C 14.914062 -8.320312 16.351562 -7.78125 18.0625 -7.78125 C 20.59375 -7.78125 22.351562 -8.847656 23.34375 -10.984375 L 34.15625 -10.984375 C 33.59375 -8.804688 32.585938 -6.847656 31.140625 -5.109375 C 29.703125 -3.367188 27.894531 -2.003906 25.71875 -1.015625 C 23.539062 -0.0234375 21.101562 0.46875 18.40625 0.46875 C 15.164062 0.46875 12.273438 -0.222656 9.734375 -1.609375 C 7.203125 -2.992188 5.222656 -4.972656 3.796875 -7.546875 C 2.367188 -10.117188 1.65625 -13.125 1.65625 -16.5625 C 1.65625 -20.007812 2.359375 -23.019531 3.765625 -25.59375 C 5.171875 -28.164062 7.140625 -30.144531 9.671875 -31.53125 C 12.210938 -32.914062 15.125 -33.609375 18.40625 -33.609375 C 21.613281 -33.609375 24.460938 -32.9375 26.953125 -31.59375 C 29.453125 -30.25 31.40625 -28.328125 32.8125 -25.828125 C 34.21875 -23.335938 34.921875 -20.429688 34.921875 -17.109375 Z M 24.53125 -19.78125 C 24.53125 -21.519531 23.9375 -22.90625 22.75 -23.9375 C 21.5625 -24.96875 20.078125 -25.484375 18.296875 -25.484375 C 16.585938 -25.484375 15.148438 -24.988281 13.984375 -24 C 12.816406 -23.007812 12.09375 -21.601562 11.8125 -19.78125 Z M 24.53125 -19.78125 "/></g></g></g></svg>