<svg xmlns="http://www.w3.org/2000/svg" xmlns:xlink="http://www.w3.org/1999/xlink" width="1080" zoomAndPan="magnify" viewBox="0 0 810 540.000001" height="720" preserveAspectRatio="xMidYMid meet" version="1.0"><defs><g/><clipPath id="07a37a2ade"><path d="M 0.75 0 L 809.25 0 L 809.25 539 L 0.75 539 Z M 0.75 0 " clip-rule="nonzero"/></clipPath><clipPath id="c02f35a87d"><path d="M 9 0 L 683 0 L 683 539 L 9 539 Z M 9 0 " clip-rule="nonzero"/></clipPath><clipPath id="05a988116a"><path d="M 184.152344 774.082031 L -66.535156 -338.925781 L 580.527344 -484.664062 L 831.214844 628.339844 Z M 184.152344 774.082031 " clip-rule="nonzero"/></clipPath><clipPath id="4a108b6c7d"><path d="M 164.082031 684.980469 L 9.296875 -2.246094 L 656.359375 -147.988281 L 811.144531 539.242188 Z M 164.082031 684.980469 " clip-rule="nonzero"/></clipPath><clipPath id="9e453614ae"><path d="M 184.144531 774.050781 L -66.542969 -338.953125 L 580.519531 -484.695312 L 831.207031 628.3125 Z M 184.144531 774.050781 " clip-rule="nonzero"/></clipPath></defs><g clip-path="url(#07a37a2ade)"><path fill="#ffffff" d="M 0.75 0 L 809.25 0 L 809.25 539 L 0.75 539 Z M 0.75 0 " fill-opacity="1" fill-rule="nonzero"/><path fill="#8c52ff" d="M 0.75 0 L 809.25 0 L 809.25 539 L 0.75 539 Z M 0.75 0 " fill-opacity="1" fill-rule="nonzero"/></g><g clip-path="url(#c02f35a87d)"><g clip-path="url(#05a988116a)"><g clip-path="url(#4a108b6c7d)"><g clip-path="url(#9e453614ae)"><path fill="#f29e66" d="M 424.605469 719.542969 C 496.101562 703.207031 569.320312 687.007812 639.058594 671.183594 C 639.058594 671.183594 765.210938 335.304688 585.933594 219.820312 C 406.65625 104.335938 304.863281 98.183594 349.578125 -102.148438 C 394.289062 -302.480469 223.476562 -403.988281 223.476562 -403.988281 L -66.453125 -338.566406 C -66.453125 -338.566406 218.644531 -120.195312 182.152344 22.75 C 145.660156 165.691406 134.195312 361.160156 287.363281 442.933594 C 440.535156 524.703125 424.605469 719.542969 424.605469 719.542969 Z M 424.605469 719.542969 " fill-opacity="0.25" fill-rule="nonzero"/></g></g></g></g><g fill="#000000" fill-opacity="1"><g transform="translate(257.025967, 288.216275)"><g><path d="M 27.890625 -6.9375 L 13.25 -6.9375 L 10.90625 0 L 0.890625 0 L 15.09375 -39.234375 L 26.15625 -39.234375 L 40.359375 0 L 30.234375 0 Z M 25.4375 -14.3125 L 20.5625 -28.671875 L 15.765625 -14.3125 Z M 25.4375 -14.3125 "/></g></g></g><g fill="#000000" fill-opacity="1"><g transform="translate(298.215927, 288.216275)"><g><path d="M 1.5625 -15.65625 C 1.5625 -18.851562 2.164062 -21.660156 3.375 -24.078125 C 4.59375 -26.503906 6.242188 -28.367188 8.328125 -29.671875 C 10.410156 -30.984375 12.738281 -31.640625 15.3125 -31.640625 C 17.363281 -31.640625 19.234375 -31.207031 20.921875 -30.34375 C 22.617188 -29.488281 23.953125 -28.335938 24.921875 -26.890625 L 24.921875 -41.359375 L 34.484375 -41.359375 L 34.484375 0 L 24.921875 0 L 24.921875 -4.46875 C 24.023438 -2.976562 22.75 -1.785156 21.09375 -0.890625 C 19.4375 0.00390625 17.507812 0.453125 15.3125 0.453125 C 12.738281 0.453125 10.410156 -0.207031 8.328125 -1.53125 C 6.242188 -2.851562 4.59375 -4.734375 3.375 -7.171875 C 2.164062 -9.617188 1.5625 -12.445312 1.5625 -15.65625 Z M 24.921875 -15.59375 C 24.921875 -17.976562 24.257812 -19.859375 22.9375 -21.234375 C 21.613281 -22.617188 20.003906 -23.3125 18.109375 -23.3125 C 16.210938 -23.3125 14.601562 -22.628906 13.28125 -21.265625 C 11.957031 -19.898438 11.296875 -18.03125 11.296875 -15.65625 C 11.296875 -13.269531 11.957031 -11.375 13.28125 -9.96875 C 14.601562 -8.570312 16.210938 -7.875 18.109375 -7.875 C 20.003906 -7.875 21.613281 -8.5625 22.9375 -9.9375 C 24.257812 -11.320312 24.921875 -13.207031 24.921875 -15.59375 Z M 24.921875 -15.59375 "/></g></g></g><g fill="#000000" fill-opacity="1"><g transform="translate(336.164342, 288.216275)"><g><path d="M 17.5 -8.9375 L 24.25 -31.1875 L 34.421875 -31.1875 L 23.359375 0 L 11.5625 0 L 0.5 -31.1875 L 10.734375 -31.1875 Z M 17.5 -8.9375 "/></g></g></g><g fill="#000000" fill-opacity="1"><g transform="translate(371.150665, 288.216275)"><g><path d="M 1.5625 -15.65625 C 1.5625 -18.851562 2.164062 -21.660156 3.375 -24.078125 C 4.59375 -26.503906 6.242188 -28.367188 8.328125 -29.671875 C 10.410156 -30.984375 12.738281 -31.640625 15.3125 -31.640625 C 17.507812 -31.640625 19.4375 -31.191406 21.09375 -30.296875 C 22.75 -29.398438 24.023438 -28.222656 24.921875 -26.765625 L 24.921875 -31.1875 L 34.484375 -31.1875 L 34.484375 0 L 24.921875 0 L 24.921875 -4.421875 C 23.992188 -2.960938 22.703125 -1.785156 21.046875 -0.890625 C 19.390625 0.00390625 17.460938 0.453125 15.265625 0.453125 C 12.722656 0.453125 10.410156 -0.207031 8.328125 -1.53125 C 6.242188 -2.851562 4.59375 -4.734375 3.375 -7.171875 C 2.164062 -9.617188 1.5625 -12.445312 1.5625 -15.65625 Z M 24.921875 -15.59375 C 24.921875 -17.976562 24.257812 -19.859375 22.9375 -21.234375 C 21.613281 -22.617188 20.003906 -23.3125 18.109375 -23.3125 C 16.210938 -23.3125 14.601562 -22.628906 13.28125 -21.265625 C 11.957031 -19.898438 11.296875 -18.03125 11.296875 -15.65625 C 11.296875 -13.269531 11.957031 -11.375 13.28125 -9.96875 C 14.601562 -8.570312 16.210938 -7.875 18.109375 -7.875 C 20.003906 -7.875 21.613281 -8.5625 22.9375 -9.9375 C 24.257812 -11.320312 24.921875 -13.207031 24.921875 -15.59375 Z M 24.921875 -15.59375 "/></g></g></g><g fill="#000000" fill-opacity="1"><g transform="translate(409.09908, 288.216275)"><g><path d="M 22.46875 -31.515625 C 26.113281 -31.515625 29.023438 -30.332031 31.203125 -27.96875 C 33.390625 -25.601562 34.484375 -22.351562 34.484375 -18.21875 L 34.484375 0 L 24.984375 0 L 24.984375 -16.9375 C 24.984375 -19.019531 24.441406 -20.640625 23.359375 -21.796875 C 22.273438 -22.953125 20.820312 -23.53125 19 -23.53125 C 17.175781 -23.53125 15.722656 -22.953125 14.640625 -21.796875 C 13.554688 -20.640625 13.015625 -19.019531 13.015625 -16.9375 L 13.015625 0 L 3.46875 0 L 3.46875 -31.1875 L 13.015625 -31.1875 L 13.015625 -27.046875 C 13.984375 -28.429688 15.285156 -29.519531 16.921875 -30.3125 C 18.566406 -31.113281 20.414062 -31.515625 22.46875 -31.515625 Z M 22.46875 -31.515625 "/></g></g></g><g fill="#000000" fill-opacity="1"><g transform="translate(446.768057, 288.216275)"><g><path d="M 1.5625 -15.59375 C 1.5625 -18.832031 2.222656 -21.660156 3.546875 -24.078125 C 4.867188 -26.503906 6.710938 -28.367188 9.078125 -29.671875 C 11.441406 -30.984375 14.15625 -31.640625 17.21875 -31.640625 C 21.125 -31.640625 24.390625 -30.613281 27.015625 -28.5625 C 29.648438 -26.507812 31.375 -23.617188 32.1875 -19.890625 L 22.015625 -19.890625 C 21.160156 -22.273438 19.503906 -23.46875 17.046875 -23.46875 C 15.296875 -23.46875 13.898438 -22.785156 12.859375 -21.421875 C 11.816406 -20.066406 11.296875 -18.125 11.296875 -15.59375 C 11.296875 -13.0625 11.816406 -11.113281 12.859375 -9.75 C 13.898438 -8.394531 15.296875 -7.71875 17.046875 -7.71875 C 19.503906 -7.71875 21.160156 -8.910156 22.015625 -11.296875 L 32.1875 -11.296875 C 31.375 -7.640625 29.644531 -4.765625 27 -2.671875 C 24.351562 -0.585938 21.09375 0.453125 17.21875 0.453125 C 14.15625 0.453125 11.441406 -0.195312 9.078125 -1.5 C 6.710938 -2.8125 4.867188 -4.675781 3.546875 -7.09375 C 2.222656 -9.519531 1.5625 -12.351562 1.5625 -15.59375 Z M 1.5625 -15.59375 "/></g></g></g><g fill="#000000" fill-opacity="1"><g transform="translate(480.580718, 288.216275)"><g><path d="M 32.859375 -16.09375 C 32.859375 -15.195312 32.804688 -14.265625 32.703125 -13.296875 L 11.0625 -13.296875 C 11.21875 -11.359375 11.84375 -9.878906 12.9375 -8.859375 C 14.039062 -7.835938 15.390625 -7.328125 16.984375 -7.328125 C 19.367188 -7.328125 21.03125 -8.332031 21.96875 -10.34375 L 32.140625 -10.34375 C 31.617188 -8.289062 30.675781 -6.441406 29.3125 -4.796875 C 27.957031 -3.160156 26.253906 -1.875 24.203125 -0.9375 C 22.148438 -0.0078125 19.859375 0.453125 17.328125 0.453125 C 14.273438 0.453125 11.554688 -0.195312 9.171875 -1.5 C 6.785156 -2.8125 4.921875 -4.675781 3.578125 -7.09375 C 2.234375 -9.519531 1.5625 -12.351562 1.5625 -15.59375 C 1.5625 -18.832031 2.222656 -21.660156 3.546875 -24.078125 C 4.867188 -26.503906 6.722656 -28.367188 9.109375 -29.671875 C 11.492188 -30.984375 14.234375 -31.640625 17.328125 -31.640625 C 20.347656 -31.640625 23.03125 -31.003906 25.375 -29.734375 C 27.71875 -28.460938 29.550781 -26.65625 30.875 -24.3125 C 32.195312 -21.96875 32.859375 -19.226562 32.859375 -16.09375 Z M 23.078125 -18.609375 C 23.078125 -20.253906 22.519531 -21.5625 21.40625 -22.53125 C 20.289062 -23.5 18.894531 -23.984375 17.21875 -23.984375 C 15.613281 -23.984375 14.257812 -23.515625 13.15625 -22.578125 C 12.0625 -21.648438 11.382812 -20.328125 11.125 -18.609375 Z M 23.078125 -18.609375 "/></g></g></g><g fill="#000000" fill-opacity="1"><g transform="translate(515.00815, 288.216275)"><g><path d="M 1.5625 -15.65625 C 1.5625 -18.851562 2.164062 -21.660156 3.375 -24.078125 C 4.59375 -26.503906 6.242188 -28.367188 8.328125 -29.671875 C 10.410156 -30.984375 12.738281 -31.640625 15.3125 -31.640625 C 17.363281 -31.640625 19.234375 -31.207031 20.921875 -30.34375 C 22.617188 -29.488281 23.953125 -28.335938 24.921875 -26.890625 L 24.921875 -41.359375 L 34.484375 -41.359375 L 34.484375 0 L 24.921875 0 L 24.921875 -4.46875 C 24.023438 -2.976562 22.75 -1.785156 21.09375 -0.890625 C 19.4375 0.00390625 17.507812 0.453125 15.3125 0.453125 C 12.738281 0.453125 10.410156 -0.207031 8.328125 -1.53125 C 6.242188 -2.851562 4.59375 -4.734375 3.375 -7.171875 C 2.164062 -9.617188 1.5625 -12.445312 1.5625 -15.65625 Z M 24.921875 -15.59375 C 24.921875 -17.976562 24.257812 -19.859375 22.9375 -21.234375 C 21.613281 -22.617188 20.003906 -23.3125 18.109375 -23.3125 C 16.210938 -23.3125 14.601562 -22.628906 13.28125 -21.265625 C 11.957031 -19.898438 11.296875 -18.03125 11.296875 -15.65625 C 11.296875 -13.269531 11.957031 -11.375 13.28125 -9.96875 C 14.601562 -8.570312 16.210938 -7.875 18.109375 -7.875 C 20.003906 -7.875 21.613281 -8.5625 22.9375 -9.9375 C 24.257812 -11.320312 24.921875 -13.207031 24.921875 -15.59375 Z M 24.921875 -15.59375 "/></g></g></g></svg>