<svg xmlns="http://www.w3.org/2000/svg" xmlns:xlink="http://www.w3.org/1999/xlink" width="1080" zoomAndPan="magnify" viewBox="0 0 810 540.000001" height="720" preserveAspectRatio="xMidYMid meet" version="1.0"><defs><filter x="0%" y="0%" width="100%" height="100%" id="7612232847"><feColorMatrix values="0 0 0 0 1 0 0 0 0 1 0 0 0 0 1 0 0 0 1 0" color-interpolation-filters="sRGB"/></filter><g/><clipPath id="5381a503df"><path d="M 0.75 0 L 809.25 0 L 809.25 539 L 0.75 539 Z M 0.75 0 " clip-rule="nonzero"/></clipPath><clipPath id="ba7b4eeacf"><path d="M 0.75 0 L 809.25 0 L 809.25 539 L 0.75 539 Z M 0.75 0 " clip-rule="nonzero"/></clipPath><clipPath id="42c5392276"><path d="M 627.101562 873.859375 L -376.699219 177.421875 L 28.273438 -406.285156 L 1032.078125 290.152344 Z M 627.101562 873.859375 " clip-rule="nonzero"/></clipPath><clipPath id="aa87eb18da"><path d="M 627.101562 873.859375 L -376.699219 177.421875 L 28.273438 -406.285156 L 1032.078125 290.152344 Z M 627.101562 873.859375 " clip-rule="nonzero"/></clipPath><mask id="f1b6671aad"><g filter="url(#7612232847)"><rect x="-81" width="972" fill="#000000" y="-54" height="648.000001" fill-opacity="0.25"/></g></mask><clipPath id="de2612bc0c"><path d="M 0.75 0 L 809.25 0 L 809.25 539 L 0.75 539 Z M 0.75 0 " clip-rule="nonzero"/></clipPath><clipPath id="192fb95a7c"><path d="M 627.101562 873.859375 L -376.699219 177.421875 L 28.273438 -406.285156 L 1032.078125 290.152344 Z M 627.101562 873.859375 " clip-rule="nonzero"/></clipPath><clipPath id="cdeb1d2c0e"><path d="M 627.101562 873.859375 L -376.699219 177.421875 L 28.273438 -406.285156 L 1032.078125 290.152344 Z M 627.101562 873.859375 " clip-rule="nonzero"/></clipPath><clipPath id="c756e1eecb"><rect x="0" width="810" y="0" height="539"/></clipPath></defs><g clip-path="url(#5381a503df)"><path fill="#ffffff" d="M 0.75 0 L 809.25 0 L 809.25 539 L 0.75 539 Z M 0.75 0 " fill-opacity="1" fill-rule="nonzero"/><path fill="#c0f0f7" d="M 0.75 0 L 809.25 0 L 809.25 539 L 0.75 539 Z M 0.75 0 " fill-opacity="1" fill-rule="nonzero"/></g><g clip-path="url(#ba7b4eeacf)"><g clip-path="url(#42c5392276)"><g clip-path="url(#aa87eb18da)"><g mask="url(#f1b6671aad)"><g transform="matrix(1, 0, 0, 1, 0.000000000000000111, 0.000000000000017795)"><g clip-path="url(#c756e1eecb)"><g clip-path="url(#de2612bc0c)"><g clip-path="url(#192fb95a7c)"><g clip-path="url(#cdeb1d2c0e)"><path fill="#56aeff" d="M 777.285156 656.75 C 821.84375 592.097656 867.859375 526.304688 911.40625 463.328125 C 911.40625 463.328125 767.648438 107.03125 542.601562 145.742188 C 317.554688 184.453125 232.808594 253.300781 122.984375 62.902344 C 13.160156 -127.5 -195.085938 -83.890625 -195.085938 -83.890625 L -376.386719 177.640625 C -376.386719 177.640625 6.644531 143.46875 81.386719 282.648438 C 156.132812 421.832031 288.660156 584.320312 468.695312 537.921875 C 648.730469 491.523438 777.285156 656.75 777.285156 656.75 Z M 777.285156 656.75 " fill-opacity="1" fill-rule="nonzero"/></g></g></g></g></g></g></g></g></g><g fill="#000000" fill-opacity="1"><g transform="translate(140.786154, 290.087809)"><g><path d="M 39.796875 -41.6875 L 39.796875 0 L 29.640625 0 L 29.640625 -17.15625 L 13.84375 -17.15625 L 13.84375 0 L 3.6875 0 L 3.6875 -41.6875 L 13.84375 -41.6875 L 13.84375 -25.359375 L 29.640625 -25.359375 L 29.640625 -41.6875 Z M 39.796875 -41.6875 "/></g></g></g><g fill="#000000" fill-opacity="1"><g transform="translate(184.197372, 290.087809)"><g><path d="M 18.765625 0.46875 C 15.515625 0.46875 12.59375 -0.222656 10 -1.609375 C 7.414062 -2.992188 5.378906 -4.972656 3.890625 -7.546875 C 2.398438 -10.117188 1.65625 -13.125 1.65625 -16.5625 C 1.65625 -19.96875 2.40625 -22.96875 3.90625 -25.5625 C 5.414062 -28.15625 7.476562 -30.144531 10.09375 -31.53125 C 12.707031 -32.914062 15.640625 -33.609375 18.890625 -33.609375 C 22.128906 -33.609375 25.054688 -32.914062 27.671875 -31.53125 C 30.285156 -30.144531 32.34375 -28.15625 33.84375 -25.5625 C 35.351562 -22.96875 36.109375 -19.96875 36.109375 -16.5625 C 36.109375 -13.164062 35.34375 -10.171875 33.8125 -7.578125 C 32.289062 -4.984375 30.210938 -2.992188 27.578125 -1.609375 C 24.953125 -0.222656 22.015625 0.46875 18.765625 0.46875 Z M 18.765625 -8.3125 C 20.703125 -8.3125 22.351562 -9.023438 23.71875 -10.453125 C 25.09375 -11.878906 25.78125 -13.914062 25.78125 -16.5625 C 25.78125 -19.21875 25.113281 -21.257812 23.78125 -22.6875 C 22.457031 -24.113281 20.828125 -24.828125 18.890625 -24.828125 C 16.910156 -24.828125 15.265625 -24.125 13.953125 -22.71875 C 12.648438 -21.3125 12 -19.257812 12 -16.5625 C 12 -13.914062 12.640625 -11.878906 13.921875 -10.453125 C 15.210938 -9.023438 16.828125 -8.3125 18.765625 -8.3125 Z M 18.765625 -8.3125 "/></g></g></g><g fill="#000000" fill-opacity="1"><g transform="translate(222.026293, 290.087809)"><g><path d="M 51.25 -33.140625 L 42.28125 0 L 31.0625 0 L 25.828125 -21.5 L 20.4375 0 L 9.265625 0 L 0.234375 -33.140625 L 10.390625 -33.140625 L 15.078125 -9.4375 L 20.671875 -33.140625 L 31.421875 -33.140625 L 37.0625 -9.5625 L 41.6875 -33.140625 Z M 51.25 -33.140625 "/></g></g></g><g fill="#000000" fill-opacity="1"><g transform="translate(273.454632, 290.087809)"><g/></g></g><g fill="#000000" fill-opacity="1"><g transform="translate(286.04448, 290.087809)"><g><path d="M 1.65625 -16.625 C 1.65625 -20.03125 2.296875 -23.019531 3.578125 -25.59375 C 4.867188 -28.164062 6.625 -30.144531 8.84375 -31.53125 C 11.0625 -32.914062 13.535156 -33.609375 16.265625 -33.609375 C 18.453125 -33.609375 20.441406 -33.15625 22.234375 -32.25 C 24.035156 -31.34375 25.453125 -30.113281 26.484375 -28.5625 L 26.484375 -43.953125 L 36.640625 -43.953125 L 36.640625 0 L 26.484375 0 L 26.484375 -4.75 C 25.535156 -3.164062 24.179688 -1.898438 22.421875 -0.953125 C 20.660156 -0.00390625 18.609375 0.46875 16.265625 0.46875 C 13.535156 0.46875 11.0625 -0.226562 8.84375 -1.625 C 6.625 -3.03125 4.867188 -5.03125 3.578125 -7.625 C 2.296875 -10.21875 1.65625 -13.21875 1.65625 -16.625 Z M 26.484375 -16.5625 C 26.484375 -19.101562 25.78125 -21.101562 24.375 -22.5625 C 22.96875 -24.03125 21.257812 -24.765625 19.25 -24.765625 C 17.226562 -24.765625 15.515625 -24.039062 14.109375 -22.59375 C 12.703125 -21.15625 12 -19.164062 12 -16.625 C 12 -14.09375 12.703125 -12.082031 14.109375 -10.59375 C 15.515625 -9.113281 17.226562 -8.375 19.25 -8.375 C 21.257812 -8.375 22.96875 -9.101562 24.375 -10.5625 C 25.78125 -12.03125 26.484375 -14.03125 26.484375 -16.5625 Z M 26.484375 -16.5625 "/></g></g></g><g fill="#000000" fill-opacity="1"><g transform="translate(326.367621, 290.087809)"><g><path d="M 18.765625 0.46875 C 15.515625 0.46875 12.59375 -0.222656 10 -1.609375 C 7.414062 -2.992188 5.378906 -4.972656 3.890625 -7.546875 C 2.398438 -10.117188 1.65625 -13.125 1.65625 -16.5625 C 1.65625 -19.96875 2.40625 -22.96875 3.90625 -25.5625 C 5.414062 -28.15625 7.476562 -30.144531 10.09375 -31.53125 C 12.707031 -32.914062 15.640625 -33.609375 18.890625 -33.609375 C 22.128906 -33.609375 25.054688 -32.914062 27.671875 -31.53125 C 30.285156 -30.144531 32.34375 -28.15625 33.84375 -25.5625 C 35.351562 -22.96875 36.109375 -19.96875 36.109375 -16.5625 C 36.109375 -13.164062 35.34375 -10.171875 33.8125 -7.578125 C 32.289062 -4.984375 30.210938 -2.992188 27.578125 -1.609375 C 24.953125 -0.222656 22.015625 0.46875 18.765625 0.46875 Z M 18.765625 -8.3125 C 20.703125 -8.3125 22.351562 -9.023438 23.71875 -10.453125 C 25.09375 -11.878906 25.78125 -13.914062 25.78125 -16.5625 C 25.78125 -19.21875 25.113281 -21.257812 23.78125 -22.6875 C 22.457031 -24.113281 20.828125 -24.828125 18.890625 -24.828125 C 16.910156 -24.828125 15.265625 -24.125 13.953125 -22.71875 C 12.648438 -21.3125 12 -19.257812 12 -16.5625 C 12 -13.914062 12.640625 -11.878906 13.921875 -10.453125 C 15.210938 -9.023438 16.828125 -8.3125 18.765625 -8.3125 Z M 18.765625 -8.3125 "/></g></g></g><g fill="#000000" fill-opacity="1"><g transform="translate(364.196541, 290.087809)"><g/></g></g><g fill="#000000" fill-opacity="1"><g transform="translate(376.786378, 290.087809)"><g><path d="M 51.25 -33.140625 L 42.28125 0 L 31.0625 0 L 25.828125 -21.5 L 20.4375 0 L 9.265625 0 L 0.234375 -33.140625 L 10.390625 -33.140625 L 15.078125 -9.4375 L 20.671875 -33.140625 L 31.421875 -33.140625 L 37.0625 -9.5625 L 41.6875 -33.140625 Z M 51.25 -33.140625 "/></g></g></g><g fill="#000000" fill-opacity="1"><g transform="translate(428.214728, 290.087809)"><g><path d="M 34.921875 -17.109375 C 34.921875 -16.148438 34.863281 -15.160156 34.75 -14.140625 L 11.765625 -14.140625 C 11.921875 -12.078125 12.582031 -10.5 13.75 -9.40625 C 14.914062 -8.320312 16.351562 -7.78125 18.0625 -7.78125 C 20.59375 -7.78125 22.351562 -8.847656 23.34375 -10.984375 L 34.15625 -10.984375 C 33.59375 -8.804688 32.585938 -6.847656 31.140625 -5.109375 C 29.703125 -3.367188 27.894531 -2.003906 25.71875 -1.015625 C 23.539062 -0.0234375 21.101562 0.46875 18.40625 0.46875 C 15.164062 0.46875 12.273438 -0.222656 9.734375 -1.609375 C 7.203125 -2.992188 5.222656 -4.972656 3.796875 -7.546875 C 2.367188 -10.117188 1.65625 -13.125 1.65625 -16.5625 C 1.65625 -20.007812 2.359375 -23.019531 3.765625 -25.59375 C 5.171875 -28.164062 7.140625 -30.144531 9.671875 -31.53125 C 12.210938 -32.914062 15.125 -33.609375 18.40625 -33.609375 C 21.613281 -33.609375 24.460938 -32.9375 26.953125 -31.59375 C 29.453125 -30.25 31.40625 -28.328125 32.8125 -25.828125 C 34.21875 -23.335938 34.921875 -20.429688 34.921875 -17.109375 Z M 24.53125 -19.78125 C 24.53125 -21.519531 23.9375 -22.90625 22.75 -23.9375 C 21.5625 -24.96875 20.078125 -25.484375 18.296875 -25.484375 C 16.585938 -25.484375 15.148438 -24.988281 13.984375 -24 C 12.816406 -23.007812 12.09375 -21.601562 11.8125 -19.78125 Z M 24.53125 -19.78125 "/></g></g></g><g fill="#000000" fill-opacity="1"><g transform="translate(464.796549, 290.087809)"><g/></g></g><g fill="#000000" fill-opacity="1"><g transform="translate(477.386409, 290.087809)"><g><path d="M 13.84375 -43.953125 L 13.84375 0 L 3.6875 0 L 3.6875 -43.953125 Z M 13.84375 -43.953125 "/></g></g></g><g fill="#000000" fill-opacity="1"><g transform="translate(494.905311, 290.087809)"><g><path d="M 34.921875 -17.109375 C 34.921875 -16.148438 34.863281 -15.160156 34.75 -14.140625 L 11.765625 -14.140625 C 11.921875 -12.078125 12.582031 -10.5 13.75 -9.40625 C 14.914062 -8.320312 16.351562 -7.78125 18.0625 -7.78125 C 20.59375 -7.78125 22.351562 -8.847656 23.34375 -10.984375 L 34.15625 -10.984375 C 33.59375 -8.804688 32.585938 -6.847656 31.140625 -5.109375 C 29.703125 -3.367188 27.894531 -2.003906 25.71875 -1.015625 C 23.539062 -0.0234375 21.101562 0.46875 18.40625 0.46875 C 15.164062 0.46875 12.273438 -0.222656 9.734375 -1.609375 C 7.203125 -2.992188 5.222656 -4.972656 3.796875 -7.546875 C 2.367188 -10.117188 1.65625 -13.125 1.65625 -16.5625 C 1.65625 -20.007812 2.359375 -23.019531 3.765625 -25.59375 C 5.171875 -28.164062 7.140625 -30.144531 9.671875 -31.53125 C 12.210938 -32.914062 15.125 -33.609375 18.40625 -33.609375 C 21.613281 -33.609375 24.460938 -32.9375 26.953125 -31.59375 C 29.453125 -30.25 31.40625 -28.328125 32.8125 -25.828125 C 34.21875 -23.335938 34.921875 -20.429688 34.921875 -17.109375 Z M 24.53125 -19.78125 C 24.53125 -21.519531 23.9375 -22.90625 22.75 -23.9375 C 21.5625 -24.96875 20.078125 -25.484375 18.296875 -25.484375 C 16.585938 -25.484375 15.148438 -24.988281 13.984375 -24 C 12.816406 -23.007812 12.09375 -21.601562 11.8125 -19.78125 Z M 24.53125 -19.78125 "/></g></g></g><g fill="#000000" fill-opacity="1"><g transform="translate(531.487132, 290.087809)"><g><path d="M 1.65625 -16.625 C 1.65625 -20.03125 2.296875 -23.019531 3.578125 -25.59375 C 4.867188 -28.164062 6.625 -30.144531 8.84375 -31.53125 C 11.0625 -32.914062 13.535156 -33.609375 16.265625 -33.609375 C 18.609375 -33.609375 20.660156 -33.132812 22.421875 -32.1875 C 24.179688 -31.238281 25.535156 -29.992188 26.484375 -28.453125 L 26.484375 -33.140625 L 36.640625 -33.140625 L 36.640625 0 L 26.484375 0 L 26.484375 -4.6875 C 25.492188 -3.144531 24.117188 -1.898438 22.359375 -0.953125 C 20.597656 -0.00390625 18.550781 0.46875 16.21875 0.46875 C 13.519531 0.46875 11.0625 -0.226562 8.84375 -1.625 C 6.625 -3.03125 4.867188 -5.03125 3.578125 -7.625 C 2.296875 -10.21875 1.65625 -13.21875 1.65625 -16.625 Z M 26.484375 -16.5625 C 26.484375 -19.101562 25.78125 -21.101562 24.375 -22.5625 C 22.96875 -24.03125 21.257812 -24.765625 19.25 -24.765625 C 17.226562 -24.765625 15.515625 -24.039062 14.109375 -22.59375 C 12.703125 -21.15625 12 -19.164062 12 -16.625 C 12 -14.09375 12.703125 -12.082031 14.109375 -10.59375 C 15.515625 -9.113281 17.226562 -8.375 19.25 -8.375 C 21.257812 -8.375 22.96875 -9.101562 24.375 -10.5625 C 25.78125 -12.03125 26.484375 -14.03125 26.484375 -16.5625 Z M 26.484375 -16.5625 "/></g></g></g><g fill="#000000" fill-opacity="1"><g transform="translate(571.810285, 290.087809)"><g><path d="M 13.84375 -27.609375 C 15.03125 -29.429688 16.515625 -30.867188 18.296875 -31.921875 C 20.078125 -32.972656 22.054688 -33.5 24.234375 -33.5 L 24.234375 -22.75 L 21.4375 -22.75 C 18.90625 -22.75 17.003906 -22.203125 15.734375 -21.109375 C 14.472656 -20.023438 13.84375 -18.113281 13.84375 -15.375 L 13.84375 0 L 3.6875 0 L 3.6875 -33.140625 L 13.84375 -33.140625 Z M 13.84375 -27.609375 "/></g></g></g><g fill="#000000" fill-opacity="1"><g transform="translate(597.22751, 290.087809)"><g><path d="M 23.875 -33.5 C 27.75 -33.5 30.84375 -32.238281 33.15625 -29.71875 C 35.476562 -27.207031 36.640625 -23.753906 36.640625 -19.359375 L 36.640625 0 L 26.546875 0 L 26.546875 -18 C 26.546875 -20.21875 25.972656 -21.9375 24.828125 -23.15625 C 23.679688 -24.382812 22.132812 -25 20.1875 -25 C 18.25 -25 16.707031 -24.382812 15.5625 -23.15625 C 14.414062 -21.9375 13.84375 -20.21875 13.84375 -18 L 13.84375 0 L 3.6875 0 L 3.6875 -33.140625 L 13.84375 -33.140625 L 13.84375 -28.75 C 14.863281 -30.207031 16.242188 -31.363281 17.984375 -32.21875 C 19.734375 -33.070312 21.695312 -33.5 23.875 -33.5 Z M 23.875 -33.5 "/></g></g></g><g fill="#000000" fill-opacity="1"><g transform="translate(637.253713, 290.087809)"><g><path d="M 15.859375 -44.015625 C 20.097656 -44.015625 23.492188 -42.90625 26.046875 -40.6875 C 28.597656 -38.46875 29.875 -35.335938 29.875 -31.296875 C 29.875 -27.578125 28.65625 -24.675781 26.21875 -22.59375 C 23.78125 -20.519531 20.5625 -19.460938 16.5625 -19.421875 L 16.265625 -14.96875 L 7.359375 -14.96875 L 7.0625 -26.015625 L 10.625 -26.015625 C 13.675781 -26.015625 16.003906 -26.390625 17.609375 -27.140625 C 19.210938 -27.890625 20.015625 -29.253906 20.015625 -31.234375 C 20.015625 -32.617188 19.632812 -33.707031 18.875 -34.5 C 18.125 -35.289062 17.078125 -35.6875 15.734375 -35.6875 C 14.304688 -35.6875 13.195312 -35.28125 12.40625 -34.46875 C 11.613281 -33.664062 11.21875 -32.570312 11.21875 -31.1875 L 1.65625 -31.1875 C 1.582031 -33.59375 2.085938 -35.765625 3.171875 -37.703125 C 4.265625 -39.648438 5.890625 -41.1875 8.046875 -42.3125 C 10.203125 -43.445312 12.804688 -44.015625 15.859375 -44.015625 Z M 11.9375 0.46875 C 10.15625 0.46875 8.695312 -0.0507812 7.5625 -1.09375 C 6.4375 -2.144531 5.875 -3.441406 5.875 -4.984375 C 5.875 -6.566406 6.4375 -7.894531 7.5625 -8.96875 C 8.695312 -10.039062 10.15625 -10.578125 11.9375 -10.578125 C 13.675781 -10.578125 15.109375 -10.039062 16.234375 -8.96875 C 17.367188 -7.894531 17.9375 -6.566406 17.9375 -4.984375 C 17.9375 -3.441406 17.367188 -2.144531 16.234375 -1.09375 C 15.109375 -0.0507812 13.675781 0.46875 11.9375 0.46875 Z M 11.9375 0.46875 "/></g></g></g></svg>